<?xml version="1.0" standalone="no"?>
<!DOCTYPE svg PUBLIC "-//W3C//DTD SVG 20010904//EN"
 "http://www.w3.org/TR/2001/REC-SVG-20010904/DTD/svg10.dtd">
<svg version="1.0" xmlns="http://www.w3.org/2000/svg"
 width="1211.000000pt" height="117.000000pt" viewBox="0 0 1211.000000 117.000000"
 preserveAspectRatio="xMidYMid meet">

<g transform="translate(0.000000,117.000000) scale(0.100000,-0.100000)"
fill="#000000" stroke="none">
<path d="M1190 1158 c0 -7 7 -38 15 -68 22 -82 19 -192 -7 -264 -14 -39 -22
-86 -22 -131 -1 -67 0 -70 24 -73 13 -2 41 1 61 7 37 11 37 12 49 83 7 39 23
103 36 142 13 38 25 88 25 110 1 23 4 55 8 71 l6 30 68 -68 c37 -38 67 -77 67
-87 0 -11 -18 -45 -40 -76 -22 -32 -40 -65 -40 -75 0 -22 33 -44 77 -52 35 -7
25 -20 140 193 13 25 22 52 20 61 -3 9 -31 60 -63 112 l-59 96 -182 1 c-140 0
-183 -3 -183 -12z"/>
<path d="M1912 1128 c5 -24 8 -67 6 -95 -5 -62 -21 -58 167 -40 l120 12 3 83
3 82 -155 0 -154 0 10 -42z"/>
<path d="M2392 1007 c-2 -131 -5 -167 -14 -161 -10 5 -10 4 -1 -6 7 -8 15 -11
18 -8 3 3 4 81 2 174 l-3 169 -2 -168z"/>
<path d="M2531 1153 c12 -15 12 -16 -3 -10 -13 4 -18 1 -18 -10 0 -9 -8 -25
-17 -36 -10 -11 -12 -17 -5 -13 8 5 21 1 33 -10 23 -20 26 -12 3 10 -10 11
-12 21 -6 32 8 14 11 11 22 -17 7 -19 14 -47 15 -64 3 -37 7 -196 6 -211 -1
-16 -81 -36 -81 -21 0 7 -4 7 -12 -1 -17 -17 -55 -15 -66 5 -9 15 -13 15 -58
-1 -27 -10 -62 -21 -79 -26 l-30 -8 33 -1 c44 -1 41 -22 -8 -56 -33 -23 -40
-33 -40 -62 0 -39 36 -117 50 -108 6 4 10 24 10 45 0 33 5 41 35 60 20 12 45
20 55 17 11 -3 20 -1 20 4 0 4 7 6 15 3 8 -4 15 -1 15 5 0 6 11 11 24 11 14 0
28 5 31 10 4 6 19 9 35 8 l29 -2 -1 -76 c-1 -83 8 -185 17 -200 8 -14 -13 -50
-28 -47 -13 2 -13 -36 -1 -145 4 -40 10 -58 20 -58 8 0 14 5 14 10 0 6 -4 10
-10 10 -5 0 -10 16 -10 35 0 24 5 35 14 35 21 0 46 -40 46 -72 0 -26 3 -28 43
-28 50 0 114 16 123 31 9 16 -15 29 -53 29 -36 0 -47 14 -58 71 -5 26 -2 40 9
52 17 17 22 32 7 22 -25 -15 -38 188 -17 265 8 30 12 58 10 62 -6 10 36 20 67
16 34 -4 150 12 172 24 16 8 18 20 13 106 -2 53 -6 104 -7 112 -1 8 2 23 6 33
6 13 3 20 -12 23 -29 8 -59 97 -30 91 7 -1 13 11 15 31 l3 32 -187 0 c-174 0
-186 -1 -173 -17z m379 -153 c0 -5 -5 -10 -11 -10 -5 0 -7 5 -4 10 3 6 8 10
11 10 2 0 4 -4 4 -10z m-169 -107 c9 -11 10 -14 2 -9 -9 5 -11 2 -7 -8 3 -9
11 -13 18 -9 6 3 8 2 3 -2 -12 -14 -47 -13 -47 1 0 13 10 44 15 44 1 0 9 -8
16 -17z"/>
<path d="M3005 1143 c41 -163 43 -208 10 -310 -16 -51 -25 -101 -25 -145 l0
-68 48 0 c26 0 53 4 60 8 7 5 19 44 27 88 9 43 22 97 31 119 9 22 20 71 25
110 15 117 13 116 84 45 35 -35 66 -71 68 -81 3 -10 -6 -33 -20 -51 -28 -37
-63 -102 -63 -116 0 -14 63 -42 92 -42 20 0 29 9 44 42 10 24 38 72 62 107 23
36 42 77 42 92 0 23 -82 168 -121 215 -9 11 -51 14 -191 14 l-180 0 7 -27z"/>
<path d="M3726 1128 c4 -24 6 -69 6 -102 l-2 -59 38 6 c20 4 71 9 112 12 41 3
89 8 107 11 l32 5 3 84 3 85 -153 0 -154 0 8 -42z"/>
<path d="M4194 1010 c0 -91 2 -128 3 -82 2 45 2 119 0 165 -1 45 -3 8 -3 -83z"/>
<path d="M4324 1146 c0 -13 4 -22 9 -19 4 2 7 -6 8 -19 1 -23 1 -23 9 2 8 24
8 24 9 2 1 -14 -7 -26 -21 -33 l-23 -10 22 5 c13 2 26 0 29 -5 3 -5 -3 -9 -13
-10 -16 0 -15 -1 3 -9 18 -7 20 -17 22 -116 2 -68 -1 -104 -6 -95 -7 9 -11 10
-17 2 -4 -7 -2 -18 5 -26 9 -11 6 -13 -14 -11 -14 2 -23 0 -21 -4 3 -4 -6 -10
-20 -12 -13 -3 -26 0 -29 6 -3 7 -5 7 -5 -1 -1 -7 -8 -13 -17 -13 -8 0 -12 5
-9 10 3 6 2 10 -4 10 -5 0 -12 -6 -14 -12 -3 -8 -6 -5 -6 5 -1 10 -5 16 -10
12 -19 -11 -23 17 -5 30 18 13 18 14 -3 8 -14 -3 -23 -13 -23 -24 0 -12 -7
-19 -20 -19 -10 0 -30 -5 -44 -12 -23 -10 -24 -12 -9 -23 18 -13 14 -19 -50
-72 -16 -14 -27 -33 -27 -48 0 -29 36 -105 50 -105 5 0 10 19 12 42 3 38 7 45
42 64 21 12 46 21 55 19 9 -1 22 2 29 8 6 5 12 6 12 1 0 -5 4 -4 8 3 4 7 26
14 49 15 23 2 39 6 36 11 -2 4 3 7 11 7 19 0 24 -20 24 -106 1 -39 3 -102 6
-139 5 -55 3 -72 -10 -87 -9 -9 -20 -15 -24 -13 -9 6 -6 -47 5 -88 5 -20 11
-25 18 -18 16 16 44 -5 57 -44 6 -19 16 -35 22 -35 6 0 8 -3 5 -7 -4 -3 -17 2
-28 13 -22 19 -22 19 -8 -4 15 -25 32 -27 109 -12 92 17 99 40 18 54 -46 8
-59 30 -58 99 0 29 -1 89 -4 135 -2 45 0 85 5 88 12 7 11 58 -1 70 -8 8 -7 25
2 58 l12 47 86 -2 c53 -1 101 4 128 14 23 8 42 11 42 7 0 -5 -5 -11 -10 -13
-6 -3 -5 -4 2 -3 15 3 21 176 6 176 -4 0 -8 19 -8 43 0 32 -3 38 -11 27 -8
-11 -9 -6 -4 20 5 26 4 31 -4 20 -9 -13 -11 -13 -11 3 0 9 7 17 17 17 9 0 13
3 9 7 -4 4 -14 8 -23 8 -28 0 -34 39 -10 66 23 26 34 55 17 44 -5 -3 -10 -1
-10 4 0 17 -347 15 -353 -1 -4 -10 -6 -10 -6 0 -1 6 -5 12 -10 12 -5 0 -8 -11
-7 -24z m242 -291 c1 -7 -8 -11 -20 -11 -13 1 -20 7 -17 16 2 8 4 24 3 35 0
18 1 18 16 -4 9 -13 17 -29 18 -36z m-99 -287 c-3 -7 -5 -2 -5 12 0 14 2 19 5
13 2 -7 2 -19 0 -25z"/>
<path d="M4536 863 c-6 -14 -5 -15 5 -6 7 7 10 15 7 18 -3 3 -9 -2 -12 -12z"/>
<path d="M4834 1153 c37 -129 40 -241 7 -323 -14 -38 -21 -77 -21 -127 l0 -73
38 0 c73 0 79 6 92 78 6 37 22 101 35 142 14 41 27 105 31 143 3 37 9 67 14
67 5 0 36 -27 69 -61 64 -63 78 -103 46 -129 -18 -15 -51 -68 -59 -97 -6 -18
-1 -26 26 -43 18 -11 45 -20 59 -20 22 0 30 8 47 48 12 27 37 72 57 101 58 84
57 100 -13 211 l-60 95 -187 3 c-174 2 -186 1 -181 -15z"/>
<path d="M5554 1139 c3 -17 6 -59 6 -92 l0 -60 113 7 c61 4 127 10 145 13 l32
5 0 79 0 79 -151 0 -151 0 6 -31z"/>
<path d="M6175 1160 c3 -5 2 -10 -4 -10 -11 0 4 -60 17 -69 5 -3 12 -61 15
-128 5 -99 4 -123 -8 -133 -12 -10 -19 -10 -32 1 -9 8 -14 9 -10 3 8 -14 -35
-31 -78 -32 -16 0 -24 2 -17 5 16 6 5 24 -12 17 -7 -3 -18 5 -24 18 l-11 23 0
-23 c-1 -13 -4 -21 -8 -19 -5 3 -28 -3 -53 -14 -25 -10 -37 -18 -27 -18 16 -1
26 -41 9 -41 -4 0 -22 -13 -40 -29 -38 -35 -41 -65 -12 -121 26 -51 40 -51 40
-1 0 33 5 43 31 61 16 12 42 23 57 23 15 1 29 5 32 8 8 10 123 37 136 32 8 -3
11 -38 9 -114 -2 -63 0 -109 6 -109 5 0 9 -20 9 -45 0 -40 -4 -47 -36 -69 -22
-15 -30 -26 -22 -28 7 -3 13 -11 14 -19 0 -8 4 -29 9 -47 7 -29 9 -31 21 -15
12 16 14 16 29 3 17 -18 39 -84 24 -75 -5 4 -9 1 -9 -6 0 -19 157 -7 177 14
19 19 15 21 -50 32 -46 7 -52 20 -60 135 -5 62 -4 81 4 70 9 -12 9 -11 3 5
-11 27 -15 217 -4 210 4 -3 11 2 14 11 9 24 7 31 -4 14 -8 -12 -10 -12 -10 5
0 39 12 43 120 46 58 1 111 6 118 12 6 5 12 6 12 1 0 -5 9 2 18 14 16 20 17
32 10 80 -5 32 -11 79 -13 105 -2 33 -10 57 -26 73 -12 13 -19 24 -15 24 5 0
3 7 -4 15 -10 12 -10 18 0 30 11 13 10 14 -5 9 -13 -5 -16 -3 -13 7 3 8 10 13
16 12 6 -1 7 7 4 19 -5 19 -4 20 10 8 9 -8 14 -20 11 -26 -2 -7 -1 -14 4 -17
18 -12 8 39 -12 55 -17 15 -44 17 -193 18 -113 0 -171 -3 -167 -10z m220 -288
c-12 -12 -35 11 -35 35 l0 28 20 -30 c10 -16 17 -31 15 -33z"/>
<path d="M6674 1153 c36 -126 39 -239 7 -327 -14 -38 -21 -83 -21 -128 l0 -68
38 0 c73 0 79 6 92 78 6 37 22 101 35 142 14 41 27 105 31 143 3 37 9 67 14
67 5 0 36 -27 69 -61 70 -69 76 -94 34 -143 -24 -29 -53 -85 -53 -104 0 -12
67 -42 94 -42 19 0 28 9 41 43 9 23 35 68 57 101 61 89 60 104 -10 216 l-60
95 -187 3 c-174 2 -186 1 -181 -15z"/>
<path d="M7394 1139 c3 -17 6 -59 6 -92 l0 -60 113 7 c61 4 127 10 145 13 l32
5 0 79 0 79 -151 0 -151 0 6 -31z"/>
<path d="M8013 1159 c9 -5 17 -15 17 -22 0 -7 -4 -6 -10 3 -7 11 -10 5 -10
-23 0 -24 5 -40 15 -43 22 -9 18 -22 -7 -27 l-23 -4 23 -2 c19 -1 22 -6 22
-48 1 -27 3 -75 6 -109 l5 -60 -43 -14 c-72 -22 -116 -21 -134 4 -11 14 -18
17 -21 9 -3 -7 -13 -13 -23 -13 -24 0 -90 -29 -67 -30 30 0 18 -34 -23 -63
-47 -33 -52 -65 -20 -127 26 -51 40 -51 40 -1 0 32 5 44 28 59 15 11 36 22 47
24 17 2 20 -2 18 -32 l-3 -35 13 40 c12 38 15 40 77 56 36 9 70 14 76 12 8 -3
11 -30 11 -76 -1 -40 1 -107 5 -149 6 -78 3 -89 -20 -66 -7 7 -12 9 -12 6 0
-4 7 -14 16 -22 13 -13 13 -16 1 -16 -8 0 -22 -10 -33 -22 -18 -20 -18 -21 -1
-15 11 4 16 3 12 -4 -4 -5 -1 -30 6 -54 11 -36 15 -41 24 -28 7 9 17 13 24 9
17 -11 43 -66 31 -66 -5 0 -10 -7 -10 -15 0 -22 154 -16 177 8 19 19 15 21
-49 32 -43 7 -44 8 -57 64 -7 32 -6 45 5 56 8 7 14 20 14 27 0 10 -2 10 -9 -1
-14 -21 -21 55 -17 179 4 138 4 142 15 136 5 -3 8 2 7 12 -1 15 12 18 97 22
59 3 102 1 109 -5 8 -7 9 -6 4 3 -5 8 0 12 13 12 11 0 23 5 26 10 4 6 11 8 16
5 5 -4 9 -1 9 4 0 6 -6 11 -12 11 -9 0 -9 3 -2 8 18 12 -4 159 -28 189 -5 7
-7 17 -3 22 11 19 16 83 5 76 -14 -9 -13 8 2 23 8 8 8 12 1 12 -13 0 -25 -28
-17 -41 3 -5 1 -9 -4 -9 -8 0 -32 42 -32 55 0 3 11 5 24 5 34 0 42 18 14 29
l-23 10 25 1 c23 1 23 2 5 10 -30 13 -395 12 -372 -1z m377 -129 c0 -5 -4 -10
-9 -10 -6 0 -13 5 -16 10 -3 6 1 10 9 10 9 0 16 -4 16 -10z m-155 -151 c13
-25 13 -26 -13 -25 -15 1 -26 4 -24 9 1 4 2 22 2 40 0 34 5 31 35 -24z"/>
<path d="M8422 1150 c0 -14 2 -19 5 -12 2 6 2 18 0 25 -3 6 -5 1 -5 -13z"/>
<path d="M8532 1098 c26 -101 26 -216 -1 -292 -14 -38 -21 -83 -21 -128 l0
-68 55 0 c63 0 66 4 79 95 4 28 18 82 31 120 13 39 26 100 30 137 4 37 10 70
14 73 14 8 131 -122 131 -144 0 -12 -13 -39 -29 -61 -39 -54 -57 -98 -44 -111
6 -6 31 -16 57 -24 l46 -14 31 61 c17 34 46 84 65 111 19 27 34 60 34 74 0 14
-30 74 -67 134 l-68 109 -181 0 -182 0 20 -72z"/>
<path d="M9247 1068 c3 -57 7 -104 8 -106 3 -3 193 15 253 24 l32 5 0 89 0 90
-150 0 -149 0 6 -102z"/>
<path d="M9700 1130 c0 -22 5 -40 10 -40 6 0 10 18 10 40 0 22 -4 40 -10 40
-5 0 -10 -18 -10 -40z"/>
<path d="M9855 1140 c19 -37 19 -62 0 -36 -8 11 -15 16 -15 12 0 -4 11 -22 25
-40 27 -36 32 -56 13 -56 -10 0 -10 -2 -1 -8 15 -9 25 -176 12 -207 -7 -18 -8
-18 -8 5 -1 18 -4 21 -10 11 -5 -7 -15 -10 -22 -7 -8 4 -6 1 4 -7 18 -15 18
-16 0 -25 -34 -18 -104 -22 -110 -6 -7 18 -61 18 -104 -1 -19 -8 -28 -14 -21
-15 25 0 11 -34 -28 -67 -47 -40 -50 -65 -19 -131 24 -49 36 -45 41 12 3 33 8
42 39 58 19 10 48 19 65 21 16 2 39 9 52 16 12 6 43 13 68 16 l47 3 -6 -56
c-3 -31 -1 -92 4 -136 8 -60 7 -81 -2 -87 -6 -4 -10 -15 -7 -26 3 -10 -1 -24
-9 -31 -10 -10 -13 -10 -13 1 0 11 -12 12 -57 6 -71 -10 -82 -1 -85 60 l-1 46
-4 -44 c-6 -64 13 -81 85 -75 41 3 51 2 37 -5 -19 -9 -19 -10 2 -10 14 -1 21
-6 18 -14 -3 -6 1 -32 8 -56 12 -38 15 -41 20 -22 5 19 9 21 26 12 19 -11 38
-48 28 -57 -11 -11 -47 -12 -47 -1 0 7 -4 7 -9 -3 -12 -17 -4 -33 11 -24 6 4
25 8 41 10 17 1 25 -1 17 -6 -21 -13 3 -19 63 -15 33 2 70 11 85 21 25 16 25
18 7 25 -11 4 -32 8 -47 8 -42 1 -61 38 -56 110 2 35 0 57 -5 54 -9 -6 -3 45
10 85 4 15 3 15 -6 2 -9 -12 -11 -11 -11 8 0 12 6 22 13 22 9 0 9 2 -1 9 -10
6 -12 26 -9 77 10 125 8 119 47 116 26 -2 31 0 20 7 -9 7 -10 11 -3 11 6 0 14
-4 17 -9 4 -5 22 -5 43 -1 25 6 42 5 52 -3 12 -9 13 -9 7 1 -4 7 -1 12 8 12 9
0 16 -4 16 -10 0 -5 5 -10 11 -10 6 0 9 7 5 15 -6 18 -2 19 26 4 18 -9 20 -9
15 4 -3 9 1 21 10 29 13 10 14 26 9 82 -4 38 -12 76 -19 85 -9 12 -9 13 1 7
17 -10 15 2 -3 21 -9 8 -14 20 -12 27 2 6 -3 17 -10 25 -10 10 -11 16 -3 21 8
5 6 11 -4 20 -9 7 -14 16 -11 20 3 4 -2 13 -10 20 -13 11 -12 15 8 30 12 9 29
20 37 23 12 4 11 6 -2 6 -10 1 -18 6 -18 12 0 5 4 8 8 5 5 -3 9 1 9 9 0 13
-32 15 -199 15 l-199 0 16 -30z m220 -266 c10 -15 12 -23 4 -19 -9 6 -11 3 -6
-8 4 -11 1 -17 -8 -17 -18 0 -28 17 -15 25 6 4 8 15 5 26 -9 27 0 24 20 -7z"/>
<path d="M10350 1161 c0 -6 7 -36 15 -68 22 -83 19 -206 -5 -276 -13 -36 -20
-82 -20 -127 l0 -70 48 0 c26 0 52 4 59 8 6 4 16 36 22 72 7 36 23 99 36 140
14 41 27 105 31 143 3 37 9 67 13 67 4 0 36 -29 69 -64 61 -63 78 -105 51
-122 -18 -11 -69 -97 -69 -116 0 -12 13 -24 35 -34 65 -27 77 -21 118 59 21
39 49 90 62 112 14 22 25 49 25 60 -1 11 -29 65 -63 120 l-63 100 -182 3
c-113 1 -182 -1 -182 -7z"/>
<path d="M11077 1073 c3 -54 6 -99 7 -100 2 -2 143 12 244 23 l42 5 0 85 0 84
-149 0 -149 0 5 -97z"/>
<path d="M11574 1010 c0 -91 2 -128 3 -82 2 45 2 119 0 165 -1 45 -3 8 -3 -83z"/>
<path d="M11695 1149 c5 -13 3 -19 -3 -15 -6 3 -9 -7 -8 -27 0 -20 7 -35 19
-39 14 -6 17 -22 19 -90 1 -46 2 -100 4 -120 3 -49 -8 -57 -111 -74 -24 -4
-27 -3 -15 6 12 9 9 10 -14 5 -25 -5 -28 -4 -23 14 3 12 2 23 -3 26 -4 3 -10
-4 -13 -15 -3 -13 -14 -20 -30 -20 -28 0 -101 -29 -74 -30 30 0 18 -34 -23
-63 -46 -33 -52 -68 -22 -126 25 -50 40 -50 44 1 3 38 7 45 43 65 21 12 43 20
47 17 4 -3 17 0 28 6 13 7 20 7 20 0 0 -5 -4 -10 -10 -10 -5 0 -10 -4 -10 -10
0 -5 7 -7 15 -4 8 4 15 15 15 25 0 13 7 19 24 19 14 0 36 4 49 9 20 8 27 6 31
-5 10 -25 7 -41 -4 -24 -8 13 -10 13 -10 -2 0 -9 5 -20 10 -23 6 -4 8 -15 5
-26 -3 -10 -1 -44 6 -76 17 -87 18 -152 3 -168 -7 -7 -27 -12 -44 -11 -20 1
-30 -3 -30 -11 0 -15 31 -14 43 2 4 6 5 -1 2 -15 -3 -14 1 -45 8 -69 12 -38
15 -41 20 -22 5 19 9 21 26 11 11 -6 24 -23 27 -38 4 -15 12 -33 18 -41 9 -12
8 -13 -4 -6 -12 6 -13 5 -3 -5 10 -10 26 -11 78 -2 72 12 105 29 83 43 -7 5
-25 9 -39 9 -37 0 -59 20 -69 65 -10 46 2 77 28 69 9 -3 4 3 -11 13 l-28 18 4
153 c3 99 9 158 17 167 16 20 190 21 209 3 10 -11 11 -9 5 5 -6 17 -5 18 14 6
11 -7 18 -17 15 -23 -3 -5 -1 -6 6 -2 6 4 8 13 4 19 -13 21 -11 35 4 41 11 5
13 2 9 -9 -3 -9 -2 -13 3 -10 17 10 4 94 -36 229 -3 10 -1 16 4 13 5 -3 9 3 9
14 0 12 -5 18 -13 15 -8 -3 -13 3 -13 15 0 11 -6 27 -14 35 -8 7 -13 21 -12
30 3 22 46 30 46 8 0 -8 -4 -12 -10 -9 -6 4 -7 -1 -3 -11 5 -15 7 -15 16 1 6
12 6 30 -2 55 l-11 38 -186 2 -186 1 7 -22z m213 -297 c-14 -17 -22 -7 -23 29
l-1 30 17 -23 c13 -16 15 -26 7 -36z"/>
<path d="M390 1127 c-172 -59 -314 -219 -350 -394 -19 -90 -8 -235 23 -311 69
-168 199 -282 372 -328 69 -19 209 -18 276 2 179 53 320 194 373 373 20 67 21
231 3 292 -54 176 -191 318 -355 369 -93 29 -254 28 -342 -3z m333 -28 c82
-27 142 -67 209 -137 99 -104 138 -202 138 -348 0 -145 -45 -251 -149 -355
-43 -43 -89 -77 -131 -97 l-65 -31 -8 25 c-5 13 -15 24 -22 24 -20 0 -37 -34
-24 -47 7 -7 2 -12 -15 -15 -27 -5 -37 14 -14 28 15 10 -27 25 -47 18 -8 -4
-15 -17 -15 -31 0 -21 -3 -23 -14 -13 -8 6 -12 18 -9 26 3 10 0 12 -10 8 -11
-4 -17 2 -19 18 -3 18 -7 12 -15 -22 -10 -42 -11 -43 -12 -12 -1 25 -5 32 -21
32 -25 0 -38 -29 -19 -41 11 -7 11 -9 -3 -9 -18 0 -20 5 -22 45 -1 11 -9 21
-19 23 -10 2 -16 -2 -15 -8 2 -7 -5 -17 -14 -23 -41 -27 -213 112 -270 219
-76 141 -76 330 -2 477 33 63 143 176 204 207 123 64 283 79 403 39z"/>
<path d="M440 1022 c-156 -52 -264 -180 -292 -345 -46 -278 209 -525 491 -477
210 36 365 234 348 445 -7 86 -25 139 -73 211 -76 114 -186 173 -334 180 -64
3 -99 0 -140 -14z m5 -52 c3 -5 40 -10 81 -10 41 0 74 -3 74 -6 0 -3 -45 -56
-100 -116 -100 -109 -121 -151 -85 -164 12 -5 13 -36 8 -207 -3 -111 -7 -203
-8 -205 -2 -2 -20 6 -42 16 -55 29 -129 108 -159 169 -49 99 -48 246 2 344 51
102 203 221 229 179z m329 -24 c249 -159 240 -520 -17 -671 l-47 -27 -52 58
c-84 91 -83 80 -22 164 58 80 68 114 32 108 -14 -2 -48 -39 -97 -105 -42 -56
-79 -102 -83 -102 -5 -1 -8 64 -8 143 l0 144 31 6 c17 3 48 6 68 6 98 0 142
27 110 67 -11 13 -28 15 -93 10 -74 -6 -78 -6 -64 11 93 111 135 162 151 190
10 17 23 32 28 32 6 0 34 -15 63 -34z m-174 -652 c23 -30 40 -57 38 -59 -11
-10 -148 -8 -148 3 0 9 59 112 64 112 2 0 23 -25 46 -56z"/>
<path d="M10207 1094 c-6 -6 19 -64 27 -64 2 0 6 7 10 15 3 8 0 14 -7 12 -7
-1 -11 7 -10 21 3 21 -7 29 -20 16z"/>
<path d="M4212 1055 c0 -16 2 -22 5 -12 2 9 2 23 0 30 -3 6 -5 -1 -5 -18z"/>
<path d="M6531 1075 c1 -19 18 -51 18 -35 0 8 -4 22 -9 30 -5 8 -9 11 -9 5z"/>
<path d="M9852 1046 c7 -8 15 -12 17 -11 5 6 -10 25 -20 25 -5 0 -4 -6 3 -14z"/>
<path d="M11686 1053 c5 -5 12 -12 16 -18 4 -6 8 -2 8 8 0 9 -7 17 -17 17 -9
0 -12 -3 -7 -7z"/>
<path d="M2530 1040 c-13 -8 -12 -10 3 -10 9 0 17 5 17 10 0 12 -1 12 -20 0z"/>
<path d="M4741 1034 c0 -11 3 -14 6 -6 3 7 2 16 -1 19 -3 4 -6 -2 -5 -13z"/>
<path d="M2490 1025 c0 -8 2 -15 4 -15 2 0 6 7 10 15 3 8 1 15 -4 15 -6 0 -10
-7 -10 -15z"/>
<path d="M8422 995 c0 -16 2 -22 5 -12 2 9 2 23 0 30 -3 6 -5 -1 -5 -18z"/>
<path d="M8422 890 c0 -14 2 -19 5 -12 2 6 2 18 0 25 -3 6 -5 1 -5 -13z"/>
<path d="M12101 874 c0 -11 3 -14 6 -6 3 7 2 16 -1 19 -3 4 -6 -2 -5 -13z"/>
<path d="M9706 834 c-4 -14 -5 -28 -3 -31 3 -2 8 8 11 23 4 14 5 28 3 31 -3 2
-8 -8 -11 -23z"/>
<path d="M6185 840 c-3 -5 -1 -10 4 -10 6 0 11 5 11 10 0 6 -2 10 -4 10 -3 0
-8 -4 -11 -10z"/>
<path d="M7891 840 c-9 -5 -5 -9 10 -13 28 -7 31 -6 14 10 -6 6 -18 8 -24 3z"/>
<path d="M9726 835 c-3 -9 3 -19 17 -26 20 -11 21 -11 8 4 -9 12 -10 17 -2 17
7 0 9 5 6 10 -9 14 -22 12 -29 -5z"/>
<path d="M7890 810 c0 -5 5 -10 11 -10 5 0 7 5 4 10 -3 6 -8 10 -11 10 -2 0
-4 -4 -4 -10z"/>
<path d="M5868 773 c6 -2 18 -2 25 0 6 3 1 5 -13 5 -14 0 -19 -2 -12 -5z"/>
<path d="M7708 773 c6 -2 18 -2 25 0 6 3 1 5 -13 5 -14 0 -19 -2 -12 -5z"/>
<path d="M4038 763 c6 -2 18 -2 25 0 6 3 1 5 -13 5 -14 0 -19 -2 -12 -5z"/>
<path d="M11388 763 c6 -2 18 -2 25 0 6 3 1 5 -13 5 -14 0 -19 -2 -12 -5z"/>
<path d="M9578 753 c7 -3 16 -2 19 1 4 3 -2 6 -13 5 -11 0 -14 -3 -6 -6z"/>
<path d="M2895 725 c-5 -2 -27 -6 -47 -10 -21 -3 -38 -10 -38 -16 0 -6 6 -6
19 0 10 6 34 11 54 13 20 1 33 6 31 10 -3 4 -6 8 -7 7 -1 0 -6 -2 -12 -4z"/>
<path d="M6562 710 c0 -14 2 -19 5 -12 2 6 2 18 0 25 -3 6 -5 1 -5 -13z"/>
<path d="M8422 710 c0 -14 2 -19 5 -12 2 6 2 18 0 25 -3 6 -5 1 -5 -13z"/>
<path d="M2760 700 c0 -5 5 -10 10 -10 6 0 10 5 10 10 0 6 -4 10 -10 10 -5 0
-10 -4 -10 -10z"/>
<path d="M6448 703 c6 -2 18 -2 25 0 6 3 1 5 -13 5 -14 0 -19 -2 -12 -5z"/>
<path d="M7996 685 c4 -8 8 -15 10 -15 2 0 4 7 4 15 0 8 -4 15 -10 15 -5 0 -7
-7 -4 -15z"/>
<path d="M6161 664 c0 -11 3 -14 6 -6 3 7 2 16 -1 19 -3 4 -6 -2 -5 -13z"/>
<path d="M9790 660 c-11 -8 -7 -9 15 -4 37 8 45 14 19 14 -10 0 -26 -5 -34
-10z"/>
<path d="M4187 653 c-10 -10 -8 -33 2 -33 6 0 9 9 8 20 -1 23 -1 22 -10 13z"/>
<path d="M4215 650 c-3 -6 1 -7 9 -4 18 7 21 14 7 14 -6 0 -13 -4 -16 -10z"/>
<path d="M6010 635 c0 -14 2 -25 4 -25 2 0 6 11 8 25 3 14 1 25 -3 25 -5 0 -9
-11 -9 -25z"/>
<path d="M11825 651 c-3 -5 -2 -12 3 -15 5 -3 9 1 9 9 0 17 -3 19 -12 6z"/>
<path d="M6035 639 c-4 -6 -5 -12 -2 -15 2 -3 7 2 10 11 7 17 1 20 -8 4z"/>
<path d="M6056 635 c-9 -26 -7 -32 5 -12 6 10 9 21 6 23 -2 3 -7 -2 -11 -11z"/>
<path d="M9705 632 c-9 -24 -5 -63 5 -57 6 3 7 17 4 31 -6 22 -4 24 18 15 19
-7 24 -6 24 8 0 20 -43 22 -51 3z"/>
<path d="M4210 545 c0 -43 3 -76 6 -72 8 8 8 136 0 144 -3 3 -6 -29 -6 -72z"/>
<path d="M9991 554 c0 -11 3 -14 6 -6 3 7 2 16 -1 19 -3 4 -6 -2 -5 -13z"/>
<path d="M11530 550 c0 -11 5 -20 10 -20 6 0 10 9 10 20 0 11 -4 20 -10 20 -5
0 -10 -9 -10 -20z"/>
<path d="M2495 530 c-4 -17 -5 -34 -2 -36 2 -3 7 10 11 27 8 42 0 50 -9 9z"/>
<path d="M11680 511 c0 -6 4 -13 10 -16 6 -3 7 1 4 9 -7 18 -14 21 -14 7z"/>
<path d="M2372 490 c0 -14 2 -19 5 -12 2 6 2 18 0 25 -3 6 -5 1 -5 -13z"/>
<path d="M6312 490 c0 -14 2 -19 5 -12 2 6 2 18 0 25 -3 6 -5 1 -5 -13z"/>
<path d="M1702 457 c-12 -13 -22 -32 -22 -44 0 -11 -9 -46 -20 -78 -26 -76
-17 -83 15 -12 13 32 29 57 34 57 14 0 23 -53 17 -92 -13 -77 -14 -85 -3 -86
7 0 30 -5 52 -11 35 -9 43 -8 60 10 l20 20 -42 37 c-46 42 -54 60 -62 151 -3
36 -11 66 -17 68 -5 2 -20 -7 -32 -20z"/>
<path d="M2702 455 c0 -16 2 -22 5 -12 2 9 2 23 0 30 -3 6 -5 -1 -5 -18z"/>
<path d="M5348 470 c-9 -6 -22 -34 -28 -66 -7 -31 -18 -71 -26 -90 -8 -19 -10
-34 -5 -34 5 0 19 25 32 55 13 30 27 55 31 55 26 0 19 -141 -8 -167 -8 -9 -12
-18 -9 -21 3 -4 10 -1 14 7 7 10 14 10 40 -4 39 -20 80 -16 95 8 9 15 4 24
-33 56 -43 36 -44 39 -54 124 -11 86 -17 95 -49 77z"/>
<path d="M7182 467 c-6 -7 -15 -33 -21 -57 -6 -25 -17 -64 -25 -87 -22 -63 -2
-52 25 12 12 30 26 55 31 55 26 0 18 -155 -9 -175 -13 -10 -9 -12 18 -13 19
-1 51 -3 73 -4 28 -2 41 2 50 15 9 15 4 24 -32 55 -35 31 -44 46 -52 91 -6 29
-10 69 -10 87 0 27 -4 34 -19 34 -10 0 -23 -6 -29 -13z"/>
<path d="M2480 461 c0 -6 4 -13 10 -16 6 -3 7 1 4 9 -7 18 -14 21 -14 7z"/>
<path d="M2510 465 c0 -5 5 -17 10 -25 5 -8 10 -10 10 -5 0 6 -5 17 -10 25 -5
8 -10 11 -10 5z"/>
<path d="M3523 462 c-11 -7 -64 -169 -63 -190 1 -4 15 20 31 52 23 44 33 56
40 45 20 -31 5 -149 -19 -149 -8 0 -13 -3 -10 -6 5 -5 14 -7 48 -13 3 -1 -1
-5 -9 -10 -8 -5 9 -8 44 -7 69 1 91 21 61 55 -11 12 -25 21 -33 21 -21 0 -40
56 -48 138 -7 70 -15 81 -42 64z"/>
<path d="M10868 459 c-10 -5 -20 -26 -24 -47 -4 -20 -15 -61 -25 -89 -23 -67
-10 -69 20 -3 12 28 26 50 31 50 16 0 22 -39 15 -95 -9 -69 9 -95 65 -95 66 0
80 39 26 71 -41 24 -55 58 -63 152 -6 68 -12 76 -45 56z"/>
<path d="M9036 445 c-8 -9 -18 -32 -22 -53 -4 -20 -15 -58 -25 -84 -25 -63 -9
-62 21 2 13 28 27 50 32 50 13 0 21 -48 14 -94 -11 -74 -2 -91 50 -94 77 -5
99 34 40 69 -40 23 -54 56 -63 151 -6 71 -17 83 -47 53z"/>
<path d="M2373 410 c0 -25 2 -35 4 -22 2 12 2 32 0 45 -2 12 -4 2 -4 -23z"/>
<path d="M4960 442 c0 -29 39 -78 84 -106 60 -38 134 -71 141 -64 8 8 -6 38
-15 33 -12 -7 -53 53 -45 65 4 6 3 10 -2 9 -25 -4 -35 3 -30 21 5 18 1 20 -38
18 -27 -1 -54 5 -69 16 -14 9 -26 13 -26 8z"/>
<path d="M6030 400 c0 -29 3 -50 7 -46 7 7 5 87 -3 95 -2 2 -4 -20 -4 -49z"/>
<path d="M6800 445 c0 -3 9 -23 20 -44 12 -25 37 -50 67 -68 60 -36 132 -68
138 -61 9 9 -6 38 -20 38 -16 0 -48 48 -40 61 4 5 3 9 -2 8 -25 -4 -35 3 -30
21 5 18 1 20 -39 18 -29 -1 -50 4 -62 15 -19 17 -32 22 -32 12z"/>
<path d="M1320 431 c0 -5 7 -16 15 -24 10 -11 11 -17 3 -19 -6 -2 4 -16 23
-30 34 -26 167 -98 180 -98 16 0 -5 39 -23 43 -14 4 -19 11 -14 22 3 9 2 14
-3 11 -11 -7 -33 18 -24 27 3 4 -1 7 -11 7 -12 0 -16 7 -14 23 3 20 -1 22 -35
19 -23 -2 -48 3 -62 12 -28 18 -35 20 -35 7z"/>
<path d="M2054 415 c-14 -22 -15 -32 -5 -64 6 -21 14 -66 17 -100 6 -56 12
-69 26 -56 3 3 1 31 -4 62 -5 34 -5 60 0 65 15 15 51 -31 58 -71 9 -59 11 -61
51 -61 60 0 81 10 92 41 12 34 7 38 -51 45 -51 6 -77 29 -125 107 -20 31 -37
57 -39 57 -2 0 -11 -11 -20 -25z"/>
<path d="M2661 424 c0 -11 3 -14 6 -6 3 7 2 16 -1 19 -3 4 -6 -2 -5 -13z"/>
<path d="M5702 428 c-14 -14 -15 -60 -2 -108 5 -19 11 -54 12 -77 2 -24 5 -43
8 -44 3 0 12 -2 21 -4 9 -1 16 3 16 11 0 10 -4 11 -14 3 -11 -9 -13 2 -13 62
l0 72 25 -23 c35 -33 47 -79 26 -105 -15 -19 -15 -19 3 -5 18 14 19 13 13 -2
-5 -15 1 -17 50 -14 44 3 61 9 75 26 33 41 19 60 -47 60 -37 0 -84 45 -127
119 -25 45 -28 47 -46 29z"/>
<path d="M6013 400 c0 -25 2 -35 4 -22 2 12 2 32 0 45 -2 12 -4 2 -4 -23z"/>
<path d="M7542 428 c-14 -14 -15 -60 -2 -108 5 -19 11 -55 13 -80 3 -38 7 -45
25 -46 12 -1 19 3 16 8 -3 4 -10 6 -15 3 -5 -4 -9 24 -9 67 l1 73 29 -33 c32
-34 39 -78 18 -102 -10 -11 -9 -11 6 0 18 14 19 13 13 -2 -5 -15 1 -17 50 -14
44 3 61 9 75 26 33 41 19 60 -47 60 -37 0 -84 45 -127 119 -25 45 -28 47 -46
29z"/>
<path d="M3145 404 c11 -18 12 -24 4 -18 -10 6 -10 3 1 -11 24 -30 120 -87
136 -81 8 3 13 2 10 -3 -6 -9 51 -37 60 -29 7 8 -7 38 -16 33 -4 -3 -13 2 -20
10 -7 8 -9 15 -4 15 4 0 0 6 -11 13 -10 8 -15 19 -12 24 4 6 -1 10 -11 9 -12
-1 -16 5 -15 22 3 21 0 22 -32 16 -25 -4 -43 -1 -60 10 -37 24 -50 20 -30 -10z"/>
<path d="M3869 406 c-8 -17 -7 -47 5 -116 9 -52 16 -96 16 -100 0 -4 7 -7 15
-7 8 0 15 4 15 9 0 4 -4 8 -10 8 -6 0 -10 29 -10 67 l0 66 25 -23 c32 -30 60
-120 33 -104 -9 5 -9 2 1 -9 28 -35 135 -13 146 30 8 32 -7 43 -56 43 -39 0
-71 28 -128 113 -18 26 -34 47 -37 47 -2 0 -9 -11 -15 -24z"/>
<path d="M10480 421 c0 -5 7 -14 15 -21 8 -7 13 -16 10 -20 -8 -12 18 -35 80
-70 30 -17 60 -28 66 -24 8 4 9 3 5 -4 -4 -7 -3 -12 3 -12 5 0 16 -3 25 -6 12
-4 16 0 16 16 0 11 -4 19 -9 16 -5 -3 -14 1 -21 9 -7 8 -9 15 -6 15 4 0 -7 13
-25 29 -21 20 -30 35 -25 46 5 15 1 16 -34 10 -28 -5 -46 -2 -62 9 -25 18 -38
20 -38 7z"/>
<path d="M11221 417 c-16 -20 -17 -46 -4 -107 7 -30 14 -68 15 -85 2 -16 7
-32 12 -35 5 -3 8 27 7 70 l-3 75 26 -24 c30 -28 44 -84 27 -105 -15 -18 -7
-22 45 -25 55 -2 92 13 106 45 15 32 0 44 -55 44 -43 0 -68 22 -124 108 -18
28 -35 52 -37 52 -2 0 -9 -6 -15 -13z m99 -217 c0 -5 -5 -10 -11 -10 -5 0 -7
5 -4 10 3 6 8 10 11 10 2 0 4 -4 4 -10z"/>
<path d="M2530 409 c0 -5 5 -7 10 -4 6 3 10 8 10 11 0 2 -4 4 -10 4 -5 0 -10
-5 -10 -11z"/>
<path d="M8662 393 c23 -55 58 -82 161 -127 63 -28 72 -16 19 29 -18 15 -32
33 -32 40 0 7 -7 16 -16 19 -10 4 -13 13 -9 26 6 19 3 20 -33 14 -29 -5 -47
-2 -63 10 -33 23 -40 20 -27 -11z"/>
<path d="M9388 396 c-13 -24 -13 -36 -2 -85 8 -31 14 -73 16 -94 4 -68 18 -50
18 22 0 39 4 71 8 71 30 0 69 -98 48 -121 -8 -9 -8 -10 1 -5 6 3 14 2 18 -4 8
-13 66 -13 98 -1 29 11 45 59 25 72 -7 5 -32 9 -56 9 -45 0 -40 -5 -145 145
-14 19 -15 18 -29 -9z"/>
<path d="M4920 386 c0 -2 8 -10 18 -17 15 -13 16 -12 3 4 -13 16 -21 21 -21
13z"/>
<path d="M6760 386 c0 -2 8 -10 18 -17 15 -13 16 -12 3 4 -13 16 -21 21 -21
13z"/>
<path d="M2480 370 c0 -5 5 -10 11 -10 5 0 7 5 4 10 -3 6 -8 10 -11 10 -2 0
-4 -4 -4 -10z"/>
<path d="M4183 357 c-3 -4 -2 -11 1 -14 3 -4 6 -1 6 5 0 6 6 9 14 6 8 -3 16
-2 19 3 3 5 -3 9 -14 9 -11 0 -23 -4 -26 -9z"/>
<path d="M7870 359 c0 -5 5 -7 10 -4 6 3 10 8 10 11 0 2 -4 4 -10 4 -5 0 -10
-5 -10 -11z"/>
<path d="M10441 367 c2 -1 13 -9 24 -17 19 -14 19 -14 6 3 -7 9 -18 17 -24 17
-6 0 -8 -1 -6 -3z"/>
<path d="M1310 356 c0 -2 8 -10 18 -17 15 -13 16 -12 3 4 -13 16 -21 21 -21
13z"/>
<path d="M4723 345 c0 -7 6 -11 14 -8 7 3 13 6 13 8 0 2 -6 5 -13 8 -8 3 -14
-1 -14 -8z"/>
<path d="M8611 357 c2 -1 13 -9 24 -17 19 -14 19 -14 6 3 -7 9 -18 17 -24 17
-6 0 -8 -1 -6 -3z"/>
<path d="M10120 354 c60 -8 128 -8 123 -1 -2 4 -37 6 -76 6 -40 -1 -61 -3 -47
-5z"/>
<path d="M3130 346 c0 -2 14 -14 30 -26 17 -12 30 -19 30 -16 0 2 -13 14 -30
26 -16 12 -30 19 -30 16z"/>
<path d="M1250 303 c-21 -14 -44 -23 -57 -20 -29 5 -29 -4 0 -31 38 -36 246
-44 234 -9 -2 7 -12 12 -23 12 -28 1 -116 44 -109 55 12 19 -12 16 -45 -7z"/>
<path d="M4900 310 c-14 -11 -41 -20 -60 -20 -33 -1 -34 -1 -15 -16 16 -11 17
-17 7 -23 -18 -11 60 -21 165 -21 81 0 83 1 73 20 -6 11 -16 18 -21 14 -12 -7
-69 15 -69 27 0 5 -9 9 -20 9 -11 0 -20 7 -20 15 0 20 -10 19 -40 -5z"/>
<path d="M6740 310 c-14 -11 -40 -20 -59 -20 -33 0 -33 -1 -17 -19 13 -15 14
-20 4 -24 -15 -6 -12 -6 140 -13 109 -6 113 -5 104 13 -7 12 -20 18 -38 18
-16 -1 -37 7 -48 17 -11 10 -26 18 -33 18 -7 0 -13 7 -13 15 0 20 -10 19 -40
-5z"/>
<path d="M8660 326 c0 -2 8 -10 18 -17 15 -13 16 -12 3 4 -13 16 -21 21 -21
13z"/>
<path d="M3069 299 c-14 -11 -40 -21 -57 -21 -31 -1 -32 -2 -16 -20 16 -17 16
-18 -2 -19 -53 -3 74 -18 158 -18 83 -1 96 1 92 14 -4 8 -15 15 -26 15 -10 0
-33 8 -51 17 -18 9 -36 16 -40 15 -5 -2 -11 7 -14 18 -6 24 -11 24 -44 -1z"/>
<path d="M10420 300 c-14 -10 -40 -20 -58 -22 l-32 -3 25 -27 c25 -27 29 -28
135 -28 93 0 109 2 104 15 -4 9 -19 15 -35 15 -16 0 -38 8 -49 18 -11 9 -25
18 -30 18 -6 1 -14 2 -20 3 -5 0 -7 8 -4 16 8 20 -6 18 -36 -5z"/>
<path d="M8595 290 c-11 -11 -37 -21 -58 -22 -20 -2 -37 -5 -37 -7 0 -2 11
-14 24 -26 41 -38 253 -45 239 -8 -3 8 -14 13 -24 10 -9 -3 -31 4 -48 14 -18
11 -38 19 -46 19 -8 0 -15 9 -15 20 0 25 -10 25 -35 0z"/>
<path d="M1427 279 c7 -7 15 -10 18 -7 3 3 -2 9 -12 12 -14 6 -15 5 -6 -5z"/>
<path d="M5070 286 c0 -2 7 -7 16 -10 8 -3 12 -2 9 4 -6 10 -25 14 -25 6z"/>
<path d="M10577 279 c7 -7 15 -10 18 -7 3 3 -2 9 -12 12 -14 6 -15 5 -6 -5z"/>
<path d="M5137 219 c7 -7 15 -10 18 -7 3 3 -2 9 -12 12 -14 6 -15 5 -6 -5z"/>
<path d="M7150 219 c0 -5 5 -7 10 -4 6 3 10 8 10 11 0 2 -4 4 -10 4 -5 0 -10
-5 -10 -11z"/>
<path d="M4347 200 c-3 -12 0 -20 8 -20 8 0 11 8 8 20 -3 11 -7 20 -8 20 -1 0
-5 -9 -8 -20z"/>
<path d="M4798 213 c7 -3 16 -2 19 1 4 3 -2 6 -13 5 -11 0 -14 -3 -6 -6z"/>
<path d="M6177 207 c-3 -9 -2 -19 4 -23 15 -9 18 -2 9 20 -6 17 -7 18 -13 3z"/>
<path d="M6638 213 c7 -3 16 -2 19 1 4 3 -2 6 -13 5 -11 0 -14 -3 -6 -6z"/>
<path d="M8017 205 c-4 -8 -2 -17 3 -20 6 -4 10 3 10 14 0 25 -6 27 -13 6z"/>
<path d="M1188 203 c7 -3 16 -2 19 1 4 3 -2 6 -13 5 -11 0 -14 -3 -6 -6z"/>
<path d="M2570 201 c0 -5 5 -13 10 -16 6 -3 10 -2 10 4 0 5 -4 13 -10 16 -5 3
-10 2 -10 -4z"/>
<path d="M2968 203 c7 -3 16 -2 19 1 4 3 -2 6 -13 5 -11 0 -14 -3 -6 -6z"/>
<path d="M4873 203 c9 -2 25 -2 35 0 9 3 1 5 -18 5 -19 0 -27 -2 -17 -5z"/>
<path d="M6713 203 c9 -2 25 -2 35 0 9 3 1 5 -18 5 -19 0 -27 -2 -17 -5z"/>
<path d="M10318 203 c7 -3 16 -2 19 1 4 3 -2 6 -13 5 -11 0 -14 -3 -6 -6z"/>
<path d="M1293 193 c15 -2 39 -2 55 0 15 2 2 4 -28 4 -30 0 -43 -2 -27 -4z"/>
<path d="M3043 193 c9 -2 23 -2 30 0 6 3 -1 5 -18 5 -16 0 -22 -2 -12 -5z"/>
<path d="M7208 193 c7 -3 16 -2 19 1 4 3 -2 6 -13 5 -11 0 -14 -3 -6 -6z"/>
<path d="M10383 193 c9 -2 25 -2 35 0 9 3 1 5 -18 5 -19 0 -27 -2 -17 -5z"/>
<path d="M10860 190 c17 -11 47 -14 36 -3 -3 4 -17 8 -29 10 -17 2 -19 1 -7
-7z"/>
<path d="M11696 191 c-3 -5 3 -11 15 -14 16 -4 18 -3 8 9 -13 16 -16 17 -23 5z"/>
<path d="M3020 170 c0 -5 5 -10 11 -10 5 0 7 5 4 10 -3 6 -8 10 -11 10 -2 0
-4 -4 -4 -10z"/>
<path d="M8633 173 c15 -2 37 -2 50 0 12 2 0 4 -28 4 -27 0 -38 -2 -22 -4z"/>
<path d="M10380 169 c0 -5 5 -7 10 -4 6 3 10 8 10 11 0 2 -4 4 -10 4 -5 0 -10
-5 -10 -11z"/>
<path d="M3198 163 c7 -3 16 -2 19 1 4 3 -2 6 -13 5 -11 0 -14 -3 -6 -6z"/>
<path d="M8548 153 c6 -2 18 -2 25 0 6 3 1 5 -13 5 -14 0 -19 -2 -12 -5z"/>
</g>
</svg>
