<svg version="1.2" xmlns="http://www.w3.org/2000/svg" viewBox="0 0 1211 117" width="725" height="70">
	<title>zakira-shoes-Logo-2-svg</title>
	<style>
		.s0 { fill: #000000 } 
	</style>
	<g id="Layer">
		<path id="Layer" class="s0" d="m137.3 0l18.2 0.1 5.9 9.6c3.2 5.2 6 10.3 6.3 11.2 0.2 0.9-0.7 3.6-2 6.1-11.5 21.3-10.5 20-14 19.3-4.4-0.8-7.7-3-7.7-5.2 0-1 1.8-4.3 4-7.5 2.2-3.1 4-6.5 4-7.6 0-1-3-4.9-6.7-8.7l-6.8-6.8-0.6 3c-0.4 1.6-0.7 4.8-0.8 7.1 0 2.2-1.2 7.2-2.5 11-1.3 3.9-2.9 10.3-3.6 14.2-1.2 7.1-1.2 7.2-4.9 8.3-2 0.6-4.8 0.9-6.1 0.7-2.4-0.3-2.5-0.6-2.4-7.3 0-4.5 0.8-9.2 2.2-13.1 2.6-7.2 2.9-18.2 0.7-26.4-0.8-3-1.5-6.1-1.5-6.8 0-0.9 4.3-1.2 18.3-1.2z"/>
		<path id="Layer" class="s0" d="m190.2 0h15.4 15.5l-0.3 8.2-0.3 8.3-12 1.2c-18.8 1.8-17.2 2.2-16.7-4 0.2-2.8-0.1-7.1-0.6-9.5z"/>
		<path id="Layer" class="s0" d="m239.4-0.5l0.3 16.9c0.2 9.3 0.1 17.1-0.2 17.4-0.3 0.3-1.1 0-1.8-0.8-0.9-1-0.9-1.1 0.1-0.6 0.9 0.6 1.2-3 1.4-16.1z"/>
		<path id="Layer" fill-rule="evenodd" class="s0" d="m270.4 0h18.7l-0.3 3.2c-0.2 2-0.8 3.2-1.5 3.1-2.9-0.6 0.1 8.3 3 9.1 1.5 0.3 1.8 1 1.2 2.3-0.4 1-0.7 2.5-0.6 3.3 0.1 0.8 0.5 5.9 0.7 11.2 0.5 8.6 0.3 9.8-1.3 10.6-2.2 1.2-13.8 2.8-17.2 2.4-3.1-0.4-7.3 0.6-6.7 1.6 0.2 0.4-0.2 3.2-1 6.2-2.1 7.7-0.8 28 1.7 26.5 1.5-1 1 0.5-0.7 2.2-1.1 1.2-1.4 2.6-0.9 5.2 1.1 5.7 2.2 7.1 5.8 7.1 3.8 0 6.2 1.3 5.3 2.9-0.9 1.5-7.3 3.1-12.3 3.1-4 0-4.3-0.2-4.3-2.8 0-3.2-2.5-7.2-4.6-7.2-0.9 0-1.4 1.1-1.4 3.5 0 1.9 0.5 3.5 1 3.5 0.6 0 1 0.4 1 1 0 0.5-0.6 1-1.4 1-1 0-1.6-1.8-2-5.8-1.2-10.9-1.2-14.7 0.1-14.5 1.5 0.3 3.6-3.3 2.8-4.7-0.9-1.5-1.8-11.7-1.7-20l0.1-7.6-2.9-0.2c-1.6-0.1-3.1 0.2-3.5 0.8-0.3 0.5-1.7 1-3.1 1-1.3 0-2.4 0.5-2.4 1.1 0 0.6-0.7 0.9-1.5 0.5-0.8-0.3-1.5-0.1-1.5 0.3 0 0.5-0.9 0.7-2 0.4-1-0.3-3.5 0.5-5.5 1.7-3 1.9-3.5 2.7-3.5 6 0 2.1-0.4 4.1-1 4.5-1.4 0.9-5-6.9-5-10.8 0-2.9 0.7-3.9 4-6.2 4.9-3.4 5.2-5.5 0.8-5.6l-3.3-0.1 3-0.8c1.7-0.5 5.2-1.6 7.9-2.6 4.5-1.6 4.9-1.6 5.8-0.1 1.1 2 4.9 2.2 6.6 0.5 0.8-0.8 1.2-0.8 1.2-0.1 0 1.5 8-0.5 8.1-2.1 0.1-1.5-0.3-17.4-0.6-21.1-0.1-1.7-0.8-4.5-1.5-6.4-1.1-2.8-1.4-3.1-2.2-1.7-0.6 1.1-0.4 2.1 0.6 3.2 2.3 2.2 2 3-0.3 1-1.2-1.1-2.5-1.5-3.3-1-0.7 0.4-0.5-0.2 0.5-1.3 0.9-1.1 1.7-2.7 1.7-3.6 0-1.1 0.5-1.4 1.8-1 1.5 0.6 1.5 0.5 0.3-1-1.3-1.6-0.1-1.7 17.3-1.7zm20.2 16c-0.3 0-0.8 0.4-1.1 1-0.3 0.5-0.1 1 0.4 1 0.6 0 1.1-0.5 1.1-1 0-0.6-0.2-1-0.4-1zm-18.1 10c-0.5 0-1.5 3.1-1.5 4.4 0 1.4 3.5 1.5 4.7 0.1 0.5-0.4 0.3-0.5-0.3-0.2-0.7 0.4-1.5 0-1.8-0.9-0.4-1-0.2-1.3 0.7-0.8 0.8 0.5 0.7 0.2-0.2-0.9-0.7-0.9-1.5-1.7-1.6-1.7z"/>
		<path id="Layer" class="s0" d="m299.8 0h18c14 0 18.2 0.3 19.1 1.4 3.9 4.7 12.1 19.2 12.1 21.5 0 1.5-1.9 5.6-4.2 9.2-2.4 3.5-5.2 8.3-6.2 10.7-1.5 3.3-2.4 4.2-4.4 4.2-2.9 0-9.2-2.8-9.2-4.2 0-1.4 3.5-7.9 6.3-11.6 1.4-1.8 2.3-4.1 2-5.1-0.2-1-3.3-4.6-6.8-8.1-7.1-7.1-6.9-7.2-8.4 4.5-0.5 3.9-1.6 8.8-2.5 11-0.9 2.2-2.2 7.6-3.1 11.9-0.8 4.4-2 8.3-2.7 8.8-0.7 0.4-3.4 0.8-6 0.8h-4.8v-6.8c0-4.4 0.9-9.4 2.5-14.5 3.3-10.2 3.1-14.7-1-31z"/>
		<path id="Layer" class="s0" d="m371.8 0h15.4 15.3l-0.3 8.5-0.3 8.4-3.2 0.5c-1.8 0.3-6.6 0.8-10.7 1.1-4.1 0.3-9.2 0.8-11.2 1.2l-3.8 0.6 0.2-5.9c0-3.3-0.2-7.8-0.6-10.2z"/>
		<path id="Layer" class="s0" d="m419.7 7.7c0.2 4.6 0.2 12 0 16.5-0.1 4.6-0.3 0.9-0.3-8.2 0-9.1 0.2-12.8 0.3-8.3z"/>
		<path id="Layer" fill-rule="evenodd" class="s0" d="m433.1 0c0.5 0 0.9 0.6 1 1.2q0 1.5 0.6 0c0.6-1.6 35.3-1.8 35.3-0.1 0 0.5 0.5 0.7 1 0.4 1.7-1.1 0.6 1.8-1.7 4.4-2.4 2.7-1.8 6.6 1 6.6 0.9 0 1.9 0.4 2.3 0.8 0.4 0.4 0 0.7-0.9 0.7-1 0-1.7 0.8-1.7 1.7 0 1.6 0.2 1.6 1.1 0.3 0.8-1.1 0.9-0.6 0.4 2-0.5 2.6-0.4 3.1 0.4 2 0.8-1.1 1.1-0.5 1.1 2.7 0 2.4 0.4 4.3 0.8 4.3 1.2 0 1.1 11.5 0.1 15.9-0.3-0.2-2 0.1-4.1 0.8-2.7 1-7.5 1.5-12.8 1.4l-8.6-0.2-1.2 4.7c-0.9 3.3-1 5-0.2 5.8 1.2 1.2 1.3 6.3 0.1 7-0.5 0.3-0.7 4.3-0.5 8.8 0.3 4.6 0.4 10.6 0.4 13.5-0.1 6.9 1.2 9.1 5.8 9.9 8.1 1.4 7.4 3.7-1.8 5.4-7.7 1.5-9.4 1.3-10.9-1.2-1.4-2.3-1.4-2.3 0.8-0.4 1.1 1.1 2.4 1.6 2.8 1.3 0.3-0.4 0.1-0.7-0.5-0.7-0.6 0-1.6-1.6-2.2-3.5-1.3-3.9-4.1-6-5.7-4.4-0.7 0.7-1.3 0.2-1.8-1.8-1.1-4.1-1.4-9.4-0.5-8.8 0.4 0.2 1.5-0.4 2.4-1.3 1.3-1.5 1.5-3.2 1-8.7-0.3-3.7-0.5-10-0.6-13.9 0-8.6-0.5-10.6-2.4-10.6-0.8 0-1.3 0.3-1.1 0.7 0.3 0.5-1.3 0.9-3.6 1.1-2.3 0.1-4.5 0.8-4.9 1.5-0.4 0.7-0.8 0.8-0.8 0.3 0-0.5-0.6-0.4-1.2 0.1-0.7 0.6-2 0.9-2.9 0.8-0.9-0.2-3.4 0.7-5.5 1.9-3.5 1.9-3.9 2.6-4.2 6.4-0.2 2.3-0.7 4.2-1.2 4.2-1.4 0-5-7.6-5-10.5 0-1.5 1.1-3.4 2.7-4.8 6.4-5.3 6.8-5.9 5-7.2-1.5-1.1-1.4-1.3 0.9-2.3 1.4-0.7 3.4-1.2 4.4-1.2 1.3 0 2-0.7 2-1.9 0-1.1 0.9-2.1 2.3-2.4 2.1-0.6 2.1-0.5 0.3 0.8-1.8 1.3-1.4 4.1 0.5 3 0.5-0.4 0.9 0.2 1 1.2 0 1 0.3 1.3 0.6 0.5 0.2-0.6 0.9-1.2 1.4-1.2 0.6 0 0.7 0.4 0.4 1-0.3 0.5 0.1 1 0.9 1 0.9 0 1.6-0.6 1.7-1.3 0-0.8 0.2-0.8 0.5-0.1 0.3 0.6 1.6 0.9 2.9 0.6 1.4-0.2 2.3-0.8 2-1.2-0.2-0.4 0.7-0.6 2.1-0.4 2 0.2 2.3 0 1.4-1.1-0.7-0.8-0.9-1.9-0.5-2.6 0.6-0.8 1-0.7 1.7 0.2 0.5 0.9 0.8-2.7 0.6-9.5-0.2-9.9-0.4-10.9-2.2-11.6-1.8-0.8-1.9-0.9-0.3-0.9 1-0.1 1.6-0.5 1.3-1-0.3-0.5-1.6-0.7-2.9-0.5l-2.2 0.5 2.3-1c1.4-0.7 2.2-1.9 2.1-3.3-0.1-2.2-0.1-2.2-0.9 0.2-0.8 2.5-0.8 2.5-0.9 0.2-0.1-1.3-0.4-2.1-0.8-1.9-0.5 0.3-0.9-0.6-0.9-1.9-0.1-1.3 0.2-2.4 0.7-2.4zm40.9 43c0 0.2-0.1 0.5-0.3 0.7q0.1-0.3 0.2-0.8 0.1 0 0.1 0.1zm-0.3 0.7c-0.1 0.5-0.3 0.9-0.5 0.9-0.7 0.1-0.8 0-0.2-0.3 0.3-0.1 0.5-0.3 0.7-0.6zm-18.9-15.8c-1.5-2.2-1.6-2.2-1.6-0.4 0.1 1.1-0.1 2.7-0.3 3.5-0.3 0.9 0.4 1.5 1.7 1.6 1.2 0 2.1-0.4 2-1.1-0.1-0.7-0.9-2.3-1.8-3.6zm-8.1 29.8c-0.3-0.6-0.5-0.1-0.5 1.3 0 1.4 0.2 1.9 0.5 1.2 0.2-0.6 0.2-1.8 0-2.5z"/>
		<path id="Layer" class="s0" d="m454.8 29.5c0.3 0.3 0 1.1-0.7 1.8-1 0.9-1.1 0.8-0.5-0.6 0.3-1 0.9-1.5 1.2-1.2z"/>
		<path id="Layer" class="s0" d="m501.5 0.2l18.7 0.3 6 9.5c7 11.1 7.1 12.7 1.3 21.1-2 2.9-4.5 7.4-5.7 10.1-1.7 4-2.5 4.8-4.7 4.8-1.4 0-4.1-0.9-5.9-2-2.7-1.7-3.2-2.5-2.6-4.3 0.8-2.9 4.1-8.2 5.9-9.7 3.2-2.6 1.8-6.6-4.6-12.9-3.3-3.4-6.4-6.1-6.9-6.1-0.5 0-1.1 3-1.4 6.7-0.4 3.8-1.7 10.2-3.1 14.3-1.3 4.1-2.9 10.5-3.5 14.2-1.3 7.2-1.9 7.8-9.2 7.8h-3.8v-7.3c0-5 0.7-8.9 2.1-12.7 3.3-8.2 3-19.4-0.7-32.3-0.5-1.6 0.7-1.7 18.1-1.5z"/>
		<path id="Layer" class="s0" d="m554.8 0h15.1 15.1v7.9 7.9l-3.2 0.5c-1.8 0.3-8.4 0.9-14.5 1.3l-11.3 0.7v-6c0-3.3-0.3-7.5-0.6-9.2z"/>
		<path id="Layer" fill-rule="evenodd" class="s0" d="m634.2 0c14.9 0.1 17.6 0.3 19.3 1.8 2 1.6 3 6.7 1.2 5.5-0.5-0.3-0.6-1-0.4-1.7 0.3-0.6-0.2-1.8-1.1-2.6-1.4-1.2-1.5-1.1-1 0.8 0.3 1.2 0.2 2-0.4 1.9-0.6-0.1-1.3 0.4-1.6 1.2-0.3 1 0 1.2 1.3 0.7 1.5-0.5 1.6-0.4 0.5 0.9-1 1.2-1 1.8 0 3 0.7 0.8 0.9 1.5 0.4 1.5-0.4 0 0.3 1.1 1.5 2.4 1.6 1.6 2.4 4 2.6 7.3 0.2 2.6 0.8 7.3 1.3 10.5 0.7 4.8 0.6 6-1 8-0.9 1.2-1.8 1.9-1.8 1.4 0-0.5-0.6-0.4-1.2 0.1-0.7 0.6-6 1.1-11.8 1.2-10.8 0.3-12 0.7-12 4.6 0 1.7 0.2 1.7 1 0.5 1.1-1.7 1.3-1 0.4 1.4-0.3 0.9-1 1.4-1.4 1.1-1.1-0.7-0.7 18.3 0.4 21 0.6 1.6 0.6 1.7-0.3 0.5-0.8-1.1-0.9 0.8-0.4 7 0.8 11.5 1.4 12.8 6 13.5 6.5 1.1 6.9 1.3 5 3.2-2 2.1-17.7 3.3-17.7 1.4 0-0.7 0.4-1 0.9-0.6 1.5 0.9-0.7-5.7-2.4-7.5-1.5-1.3-1.7-1.3-2.9 0.3-1.2 1.6-1.4 1.4-2.1-1.5-0.5-1.8-0.9-3.9-0.9-4.7-0.1-0.8-0.7-1.6-1.4-1.9-0.8-0.2 0-1.3 2.2-2.8 3.2-2.2 3.6-2.9 3.6-6.9 0-2.5-0.4-4.5-0.9-4.5-0.6 0-0.8-4.6-0.6-10.9 0.2-7.6-0.1-11.1-0.9-11.4-1.3-0.5-12.8 2.2-13.6 3.2-0.3 0.3-1.7 0.7-3.2 0.8-1.5 0-4.1 1.1-5.7 2.3-2.6 1.8-3.1 2.8-3.1 6.1 0 5-1.4 5-4-0.1-2.9-5.6-2.6-8.6 1.2-12.1 1.8-1.6 3.6-2.9 4-2.9 1.7 0 0.7-4-0.9-4.1-1 0 0.2-0.8 2.7-1.8 2.5-1.1 4.8-1.7 5.3-1.4 0.4 0.2 0.7-0.6 0.8-1.9v-2.3l1.1 2.3c0.6 1.3 1.7 2.1 2.4 1.8 1.7-0.7 2.8 1.1 1.2 1.7-0.7 0.3 0.1 0.5 1.7 0.5 4.3-0.1 8.6-1.8 7.8-3.2-0.4-0.6 0.1-0.5 1 0.3 1.3 1.1 2 1.1 3.2 0.1 1.2-1 1.3-3.4 0.8-13.3-0.3-6.7-1-12.5-1.5-12.8-1.3-0.9-2.8-6.9-1.7-6.9 0.6 0 0.7-0.5 0.4-1-0.4-0.7 5.4-1 16.7-1zm3.8 26.5l-2-3v2.8c0 2.4 2.3 4.7 3.5 3.5 0.2-0.2-0.5-1.7-1.5-3.3z"/>
		<path id="Layer" class="s0" d="m685.5 0.2l18.7 0.3 6 9.5c7 11.2 7.1 12.7 1 21.6-2.2 3.3-4.8 7.8-5.7 10.1-1.3 3.4-2.2 4.3-4.1 4.3-2.7 0-9.4-3-9.4-4.2 0-1.9 2.9-7.5 5.3-10.4 4.2-4.9 3.6-7.4-3.4-14.3-3.3-3.4-6.4-6.1-6.9-6.1-0.5 0-1.1 3-1.4 6.7-0.4 3.8-1.7 10.2-3.1 14.3-1.3 4.1-2.9 10.5-3.5 14.2-1.3 7.2-1.9 7.8-9.2 7.8h-3.8v-6.8c0-4.5 0.7-9 2.1-12.8 3.2-8.8 2.9-20.1-0.7-32.7-0.5-1.6 0.7-1.7 18.1-1.5z"/>
		<path id="Layer" class="s0" d="m738.8 0h15.1 15.1v7.9 7.9l-3.2 0.5c-1.8 0.3-8.4 0.9-14.5 1.3l-11.3 0.7v-6c0-3.3-0.3-7.5-0.6-9.2z"/>
		<path id="Layer" fill-rule="evenodd" class="s0" d="m838.5 1c1.8 0.8 1.8 0.9-0.5 1l-2.5 0.1 2.3 1c2.8 1.1 2 2.9-1.4 2.9-1.3 0-2.4 0.2-2.4 0.5 0 1.3 2.4 5.5 3.2 5.5 0.5 0 0.7-0.4 0.4-0.9-0.8-1.3 0.4-4.1 1.7-4.1 0.7 0 0.7 0.4-0.1 1.2-1.5 1.5-1.6 3.2-0.2 2.3 1.1-0.7 0.6 5.7-0.5 7.6-0.4 0.5-0.2 1.5 0.3 2.2 2.4 3 4.6 17.7 2.8 18.9-0.7 0.5-0.7 0.8 0.2 0.8 0.6 0 1.2 0.5 1.2 1.1 0 0.5-0.4 0.8-0.9 0.4-0.5-0.3-1.2-0.1-1.6 0.5-0.3 0.5-1.5 1-2.6 1-1.3 0-1.8 0.4-1.3 1.2 0.5 0.9 0.4 1-0.4 0.3-0.7-0.6-5-0.8-10.9-0.5-8.5 0.4-9.8 0.7-9.7 2.2 0.1 1-0.2 1.5-0.7 1.2-1.1-0.6-1.1-0.2-1.5 13.6-0.4 12.4 0.3 20 1.7 17.9 0.7-1.1 0.9-1.1 0.9-0.1 0 0.7-0.6 2-1.4 2.7-1.1 1.1-1.2 2.4-0.5 5.6 1.3 5.6 1.4 5.7 5.7 6.4 6.4 1.1 6.8 1.3 4.9 3.2-2.3 2.4-17.7 3-17.7 0.8 0-0.8 0.5-1.5 1-1.5 1.2 0-1.4-5.5-3.1-6.6-0.7-0.4-1.7 0-2.4 0.9-0.9 1.3-1.3 0.8-2.4-2.8-0.7-2.4-1-4.9-0.6-5.4 0.4-0.7-0.1-0.8-1.2-0.4-1.7 0.6-1.7 0.5 0.1-1.5 1.1-1.2 2.5-2.2 3.3-2.2 1.2 0 1.2-0.3-0.1-1.6-0.9-0.8-1.6-1.8-1.6-2.2 0-0.3 0.5-0.1 1.2 0.6 2.3 2.3 2.6 1.2 2-6.6-0.4-4.2-0.6-10.9-0.5-14.9 0-4.6-0.3-7.3-1.1-7.6-0.6-0.2-4 0.3-7.6 1.2-6.2 1.6-6.5 1.8-7.7 5.6l-1.3 4 0.3-3.5c0.2-3-0.1-3.4-1.8-3.2-1.1 0.2-3.2 1.3-4.7 2.4-2.3 1.5-2.8 2.7-2.8 5.9 0 5-1.4 5-4-0.1-3.2-6.2-2.7-9.4 2-12.7 4.1-2.9 5.3-6.3 2.3-6.3-2.3-0.1 4.3-3 6.7-3 1 0 2-0.6 2.3-1.3q0.4-1.2 2.1 0.9c1.8 2.5 6.2 2.6 13.4 0.4l4.3-1.4-0.5-6c-0.3-3.4-0.5-8.2-0.6-10.9 0-4.2-0.3-4.7-2.2-4.8l-2.3-0.2 2.3-0.4c2.5-0.5 2.9-1.8 0.7-2.7-1-0.3-1.5-1.9-1.5-4.3 0-2.8 0.3-3.4 1-2.3 0.6 0.9 1 1 1 0.3 0-0.7-0.8-1.7-1.7-2.2-2.3-1.3 34.2-1.4 37.2-0.1zm-1.1 12c-0.8 0-1.2 0.4-0.9 1 0.3 0.5 1 1 1.6 1 0.5 0 0.9-0.5 0.9-1 0-0.6-0.7-1-1.6-1zm-17.4 13.7c0 1.8-0.1 3.6-0.2 4-0.2 0.5 0.9 0.8 2.4 0.9 2.6 0.1 2.6 0 1.3-2.5-3-5.5-3.5-5.8-3.5-2.4z"/>
		<path id="Layer" class="s0" d="m842.7 0.7c0.2 0.7 0.2 1.9 0 2.5-0.3 0.7-0.5 0.2-0.5-1.2 0-1.4 0.2-1.9 0.5-1.3z"/>
		<path id="Layer" class="s0" d="m851.2 0h18.2 18.1l6.8 10.9c3.7 6 6.7 12 6.7 13.4 0 1.4-1.5 4.7-3.4 7.4-1.9 2.7-4.8 7.7-6.5 11.1l-3.1 6.1-4.6-1.4c-2.6-0.8-5.1-1.8-5.7-2.4-1.3-1.3 0.5-5.7 4.4-11.1 1.6-2.2 2.9-4.9 2.9-6.1 0-2.2-11.7-15.2-13.1-14.4-0.4 0.3-1 3.6-1.4 7.3-0.4 3.7-1.7 9.8-3 13.7-1.3 3.8-2.7 9.2-3.1 12-1.3 9.1-1.6 9.5-7.9 9.5h-5.5v-6.8c0-4.5 0.7-9 2.1-12.8 2.7-7.6 2.7-19.1 0.1-29.2z"/>
		<path id="Layer" class="s0" d="m924.1 0h14.9 15v9 8.9l-3.2 0.5c-6 0.9-25 2.7-25.3 2.4-0.1-0.2-0.5-4.9-0.8-10.6z"/>
		<path id="Layer" class="s0" d="m971 0c0.6 0 1 1.8 1 4 0 2.2-0.4 4-1 4-0.5 0-1-1.8-1-4 0-2.2 0.5-4 1-4z"/>
		<path id="Layer" fill-rule="evenodd" class="s0" d="m983.9 0h19.9c16.7 0 19.9 0.2 19.9 1.5 0 0.8-0.4 1.2-0.9 0.9-0.4-0.3-0.8 0-0.8 0.5 0 0.6 0.8 1.1 1.8 1.2 1.3 0 1.4 0.2 0.2 0.6-0.8 0.3-2.5 1.4-3.7 2.3-2 1.5-2.1 1.9-0.8 3 0.8 0.7 1.3 1.6 1 2-0.3 0.4 0.2 1.3 1.1 2 1 0.9 1.2 1.5 0.4 2-0.8 0.5-0.7 1.1 0.3 2.1 0.7 0.8 1.2 1.9 1 2.5-0.2 0.7 0.3 1.9 1.2 2.7 1.8 1.9 2 3.1 0.3 2.1-1-0.6-1-0.5-0.1 0.7 0.7 0.9 1.5 4.7 1.9 8.5 0.5 5.6 0.4 7.2-0.9 8.2-0.9 0.8-1.3 2-1 2.9 0.5 1.3 0.3 1.3-1.5 0.4-2.8-1.5-3.2-1.4-2.6 0.4 0.4 0.8 0.1 1.5-0.5 1.5-0.6 0-1.1-0.5-1.1-1 0-0.6-0.7-1-1.6-1-0.9 0-1.2 0.5-0.8 1.2 0.6 1 0.5 1-0.7 0.1-1-0.8-2.7-0.9-5.2-0.3-2.1 0.4-3.9 0.4-4.3-0.1-0.3-0.5-1.1-0.9-1.7-0.9-0.7 0-0.6 0.4 0.3 1.1 1.1 0.7 0.6 0.9-2 0.7-3.9-0.3-3.7-0.9-4.7 11.6-0.3 5.1-0.1 7.1 0.9 7.7 1 0.7 1 0.9 0.1 0.9-0.7 0-1.3 1-1.3 2.2 0 1.9 0.2 2 1.1 0.8 0.9-1.3 1-1.3 0.6 0.2-1.3 4-1.9 9.1-1 8.5 0.5-0.3 0.7 1.9 0.5 5.4-0.5 7.2 1.4 10.9 5.6 11 1.5 0 3.6 0.4 4.7 0.8 1.8 0.7 1.8 0.9-0.7 2.5-1.5 1-5.2 1.9-8.5 2.1-6 0.4-8.4-0.2-6.3-1.5 0.8-0.5 0-0.7-1.7-0.6-1.6 0.2-3.5 0.6-4.1 1-1.5 0.9-2.3-0.7-1.1-2.4 0.5-1 0.9-1 0.9-0.3 0 1.1 3.6 1 4.7-0.1 1-0.9-0.9-4.6-2.8-5.7-1.7-0.9-2.1-0.7-2.6 1.2-0.5 1.9-0.8 1.6-2-2.2-0.7-2.4-1.1-5-0.8-5.6 0.3-0.8-0.4-1.3-1.8-1.4-2.1 0-2.1-0.1-0.2-1 1.4-0.7 0.4-0.8-3.7-0.5-7.2 0.6-9.1-1.1-8.5-7.5l0.4-4.4 0.1 4.6c0.3 6.1 1.4 7 8.5 6 4.5-0.6 5.7-0.5 5.7 0.6 0 1.1 0.3 1.1 1.3 0.1 0.8-0.7 1.2-2.1 0.9-3.1-0.3-1.1 0.1-2.2 0.7-2.6 0.9-0.6 1-2.7 0.2-8.7-0.5-4.4-0.7-10.5-0.4-13.6l0.6-5.6-4.7 0.3c-2.5 0.3-5.6 1-6.8 1.6-1.3 0.7-3.6 1.4-5.2 1.6-1.7 0.2-4.6 1.1-6.5 2.1-3.1 1.6-3.6 2.5-3.9 5.8-0.5 5.7-1.7 6.1-4.1 1.2-3.1-6.6-2.8-9.1 1.9-13.1 3.9-3.3 5.3-6.7 2.8-6.7-0.7-0.1 0.2-0.7 2.1-1.5 4.3-1.9 9.7-1.9 10.4-0.1 0.6 1.6 7.6 1.2 11-0.6 1.8-0.9 1.8-1 0-2.5-1-0.8-1.2-1.1-0.4-0.7 0.7 0.3 1.7 0 2.2-0.7 0.6-1 0.9-0.7 1 1.1 0 2.3 0.1 2.3 0.8 0.5 1.3-3.1 0.3-19.8-1.2-20.7-0.9-0.6-0.9-0.8 0.1-0.8 1.9 0 1.4-2-1.3-5.6-1.4-1.8-2.5-3.6-2.5-4 0-0.4 0.7 0.1 1.5 1.2 1.9 2.6 1.9 0.1 0-3.6zm21.6 28.9c0.3 1.1 0.1 2.2-0.5 2.6-1.3 0.8-0.3 2.5 1.5 2.5 0.9 0 1.2-0.6 0.8-1.7-0.5-1.1-0.3-1.4 0.6-0.8 0.8 0.4 0.6-0.4-0.4-1.9-2-3.1-2.9-3.4-2-0.7z"/>
		<path id="Layer" class="s0" d="m1053.2 0.2l18.2 0.3 6.3 10c3.4 5.5 6.2 10.9 6.3 12 0 1.1-1.1 3.8-2.5 6-1.3 2.2-4.1 7.3-6.2 11.2-4.1 8-5.3 8.6-11.8 5.9-2.2-1-3.5-2.2-3.5-3.4 0-1.9 5.1-10.5 6.9-11.6 2.7-1.7 1-5.9-5.1-12.2-3.3-3.5-6.5-6.4-6.9-6.4-0.4 0-1 3-1.3 6.7-0.4 3.8-1.7 10.2-3.1 14.3-1.3 4.1-2.9 10.4-3.6 14-0.6 3.6-1.6 6.8-2.2 7.2-0.7 0.4-3.3 0.8-5.9 0.8h-4.8v-7c0-4.5 0.7-9.1 2-12.7 2.4-7 2.7-19.3 0.5-27.6-0.8-3.2-1.5-6.2-1.5-6.8 0-0.6 6.9-0.8 18.2-0.7z"/>
		<path id="Layer" class="s0" d="m1107.2 0h14.9 14.9v8.4 8.5l-4.2 0.5c-10.1 1.1-24.2 2.5-24.4 2.3-0.1-0.1-0.4-4.6-0.7-10z"/>
		<path id="Layer" class="s0" d="m1157.7 7.7c0.2 4.6 0.2 12 0 16.5-0.1 4.6-0.3 0.9-0.3-8.2 0-9.1 0.2-12.8 0.3-8.3z"/>
		<path id="Layer" fill-rule="evenodd" class="s0" d="m1168.8-0.1l18.6 0.1 18.6 0.2 1.1 3.8c0.8 2.5 0.8 4.3 0.2 5.5-0.9 1.6-1.1 1.6-1.6 0.1-0.4-1-0.3-1.5 0.3-1.1 0.6 0.3 1-0.1 1-0.9 0-2.2-4.3-1.4-4.6 0.8-0.1 0.9 0.4 2.3 1.2 3 0.8 0.8 1.4 2.4 1.4 3.5 0 1.2 0.5 1.8 1.3 1.5 0.8-0.3 1.3 0.3 1.3 1.5 0 1.1-0.4 1.7-0.9 1.4-0.5-0.3-0.7 0.3-0.4 1.3 4 13.5 5.3 21.9 3.6 22.9-0.5 0.3-0.6-0.1-0.3-1 0.4-1.1 0.2-1.4-0.9-0.9-1.5 0.6-1.7 2-0.4 4.1 0.4 0.6 0.2 1.5-0.4 1.9-0.7 0.4-0.9 0.3-0.6-0.2 0.3-0.6-0.4-1.6-1.5-2.3-1.9-1.2-2-1.1-1.4 0.6 0.6 1.4 0.5 1.6-0.5 0.5-1.9-1.8-19.3-1.7-20.9 0.3-0.8 0.9-1.4 6.8-1.7 16.7l-0.4 15.3 2.8 1.8c1.5 1 2 1.6 1.1 1.3-2.6-0.8-3.8 2.3-2.8 6.9 1 4.5 3.2 6.5 6.9 6.5 1.4 0 3.2 0.4 3.9 0.9 2.2 1.4-1.1 3.1-8.3 4.3-5.2 0.9-6.8 0.8-7.8-0.2-1-1-0.9-1.1 0.3-0.5 1.2 0.7 1.3 0.6 0.4-0.6-0.6-0.8-1.4-2.6-1.8-4.1-0.3-1.5-1.6-3.2-2.7-3.8-1.7-1-2.1-0.8-2.6 1.1-0.5 1.9-0.8 1.6-2-2.2-0.7-2.4-1.1-5.5-0.8-6.9 0.3-1.4 0.2-2.1-0.2-1.5-1.2 1.6-4.3 1.7-4.3 0.2 0-0.8 1-1.2 3-1.1 1.7 0.1 3.7-0.4 4.4-1.1 1.5-1.6 1.4-8.1-0.3-16.8-0.7-3.2-0.9-6.6-0.6-7.6 0.3-1.1 0.1-2.2-0.5-2.6-0.5-0.3-1-1.4-1-2.3 0-1.5 0.2-1.5 1-0.2 1.1 1.7 1.4 0.1 0.4-2.4-0.4-1.1-1.1-1.3-3.1-0.5-1.3 0.5-3.5 0.9-4.9 0.9-1.7 0-2.4 0.6-2.4 1.9 0 1-0.7 2.1-1.5 2.5-0.8 0.3-1.5 0.1-1.5-0.4 0-0.6 0.5-1 1-1 0.6 0 1-0.5 1-1 0-0.7-0.7-0.7-2 0-1.1 0.6-2.4 0.9-2.8 0.6-0.4-0.3-2.6 0.5-4.7 1.7-3.6 2-4 2.7-4.3 6.5-0.4 5.1-1.9 5.1-4.4 0.1-3-5.8-2.4-9.3 2.2-12.6 4.1-2.9 5.3-6.3 2.3-6.3-2.7-0.1 4.6-3 7.4-3 1.6 0 2.7-0.7 3-2 0.3-1.1 0.9-1.8 1.3-1.5 0.5 0.3 0.6 1.4 0.3 2.6-0.5 1.8-0.2 1.9 2.3 1.4 2.3-0.5 2.6-0.4 1.4 0.5-1.2 0.9-0.9 1 1.5 0.6 10.3-1.7 11.4-2.5 11.1-7.4-0.2-2-0.3-7.4-0.4-12-0.2-6.8-0.5-8.4-1.9-9-1.2-0.4-1.9-1.9-1.9-3.9-0.1-2 0.2-3 0.8-2.7 0.6 0.4 0.8-0.2 0.3-1.5zm21.3 28.3l-1.7-2.3 0.1 3c0.1 3.6 0.9 4.6 2.3 2.9 0.8-1 0.6-2-0.7-3.6z"/>
		<path id="Layer" fill-rule="evenodd" class="s0" d="m73.2 4c16.4 5.1 30.1 19.3 35.5 36.9 1.8 6.1 1.7 22.5-0.3 29.2-5.3 17.9-19.4 32-37.3 37.3-6.7 2-20.7 2.1-27.6 0.2-17.3-4.6-30.3-16-37.2-32.8-3.1-7.6-4.2-22.1-2.3-31.1 3.6-17.5 17.8-33.5 35-39.4 8.8-3.1 24.9-3.2 34.2-0.3zm-41.2 7c-6.1 3.1-17.1 14.4-20.4 20.7-7.4 14.7-7.4 33.6 0.2 47.7 5.7 10.7 22.9 24.6 27 21.9 0.9-0.6 1.6-1.6 1.4-2.3-0.1-0.6 0.5-1 1.5-0.8 1 0.2 1.8 1.2 1.9 2.3 0.2 4 0.4 4.5 2.2 4.5 1.4 0 1.4-0.2 0.3-0.9-1.9-1.2-0.6-4.1 1.9-4.1 1.6 0 2 0.7 2.1 3.2 0.1 3.1 0.2 3 1.2-1.2 0.8-3.4 1.2-4 1.5-2.2 0.2 1.6 0.8 2.2 1.9 1.8 1-0.4 1.3-0.2 1 0.8-0.3 0.8 0.1 2 0.9 2.6 1.1 1 1.4 0.8 1.4-1.3 0-1.4 0.7-2.7 1.5-3.1 2-0.7 6.2 0.8 4.7 1.8-2.3 1.4-1.3 3.3 1.4 2.8q2.5-0.4 1.5-1.5c-1.3-1.3 0.4-4.7 2.4-4.7 0.7 0 1.7 1.1 2.2 2.4l0.8 2.5 6.5-3.1c4.2-2 8.8-5.4 13.1-9.7 10.4-10.4 14.9-21 14.9-35.5 0-14.6-3.9-24.4-13.8-34.8-6.7-7-12.7-11-20.9-13.7-12-4-28-2.5-40.3 3.9z"/>
		<path id="Layer" fill-rule="evenodd" class="s0" d="m58 13.4c14.8 0.7 25.8 6.6 33.4 18 4.8 7.2 6.6 12.5 7.3 21.1 1.7 21.1-13.8 40.9-34.8 44.5-28.2 4.8-53.7-19.9-49.1-47.7 2.8-16.5 13.6-29.3 29.2-34.5 4.1-1.4 7.6-1.7 14-1.4zm-36.4 24.5c-5 9.8-5.1 24.5-0.2 34.4 3 6.1 10.4 14 15.9 16.9 2.2 1 4 1.8 4.2 1.6 0.1-0.2 0.5-9.4 0.8-20.5 0.5-17.1 0.4-20.2-0.8-20.7-3.6-1.3-1.5-5.5 8.5-16.4 5.5-6 10-11.3 10-11.6 0-0.3-3.3-0.6-7.4-0.6-4.1 0-7.8-0.5-8.1-1-2.6-4.2-17.8 7.7-22.9 17.9zm49.5-18.9c-0.5 0-1.8 1.5-2.8 3.2-1.6 2.8-5.8 7.9-15.1 19-1.4 1.7-1 1.7 6.4 1.1 6.5-0.5 8.2-0.3 9.3 1 3.2 4-1.2 6.7-11 6.7-2 0-5.1 0.3-6.8 0.6l-3.1 0.6v14.4c0 7.9 0.3 14.4 0.8 14.3 0.4 0 4.1-4.6 8.3-10.2 4.9-6.6 8.3-10.3 9.7-10.5 3.6-0.6 2.6 2.8-3.2 10.8-6.1 8.4-6.2 7.3 2.2 16.4l5.2 5.8 4.7-2.7c25.7-15.1 26.6-51.2 1.7-67.1-2.9-1.9-5.7-3.4-6.3-3.4zm-15.7 63c-0.5 0-6.4 10.3-6.4 11.2 0 1.1 13.7 1.3 14.8 0.3 0.2-0.2-1.5-2.9-3.8-5.9-2.3-3.1-4.4-5.6-4.6-5.6z"/>
		<path id="Layer" class="s0" d="m1022.7 9.2c-0.1 1.4 0.3 2.2 1 2.1 0.7-0.2 1 0.4 0.7 1.2-0.4 0.8-0.8 1.5-1 1.5-0.8 0-3.3-5.8-2.7-6.4 1.3-1.3 2.3-0.5 2 1.6z"/>
		<path id="Layer" class="s0" d="m421.7 9.7c0.2 0.7 0.2 2.1 0 3-0.3 1-0.5 0.4-0.5-1.2 0-1.7 0.2-2.4 0.5-1.8z"/>
		<path id="Layer" class="s0" d="m654 10c0.5 0.8 0.9 2.2 0.9 3 0 1.6-1.7-1.6-1.8-3.5 0-0.6 0.4-0.3 0.9 0.5z"/>
		<path id="Layer" class="s0" d="m984.9 11c1 0 2.5 1.9 2 2.5-0.2 0.1-1-0.3-1.7-1.1-0.7-0.8-0.8-1.4-0.3-1.4z"/>
		<path id="Layer" class="s0" d="m1169.3 11c1 0 1.7 0.8 1.7 1.7 0 1-0.4 1.4-0.8 0.8-0.4-0.6-1.1-1.3-1.6-1.8-0.5-0.4-0.2-0.7 0.7-0.7z"/>
		<path id="Layer" class="s0" d="m255 13c0 0.5-0.8 1-1.7 1-1.5 0-1.6-0.2-0.3-1 1.9-1.2 2-1.2 2 0z"/>
		<path id="Layer" class="s0" d="m474.6 12.3c0.3 0.3 0.4 1.2 0.1 1.9-0.3 0.8-0.6 0.5-0.6-0.6-0.1-1.1 0.2-1.7 0.5-1.3z"/>
		<path id="Layer" class="s0" d="m250 13c0.5 0 0.7 0.7 0.4 1.5-0.4 0.8-0.8 1.5-1 1.5-0.2 0-0.4-0.7-0.4-1.5 0-0.8 0.4-1.5 1-1.5z"/>
		<path id="Layer" class="s0" d="m842.7 15.7c0.2 0.7 0.2 2.1 0 3-0.3 1-0.5 0.4-0.5-1.2 0-1.7 0.2-2.4 0.5-1.8z"/>
		<path id="Layer" class="s0" d="m842.7 26.7c0.2 0.7 0.2 1.9 0 2.5-0.3 0.7-0.5 0.2-0.5-1.2 0-1.4 0.2-1.9 0.5-1.3z"/>
		<path id="Layer" class="s0" d="m1210.6 28.3c0.3 0.3 0.4 1.2 0.1 1.9-0.3 0.8-0.6 0.5-0.6-0.6-0.1-1.1 0.2-1.7 0.5-1.3z"/>
		<path id="Layer" class="s0" d="m971.7 31.3c0.2 0.3 0.1 1.7-0.3 3.1-0.3 1.5-0.8 2.5-1.1 2.3-0.2-0.3-0.1-1.7 0.3-3.1 0.3-1.5 0.8-2.5 1.1-2.3z"/>
		<path id="Layer" class="s0" d="m619.6 32c0.2 0 0.4 0.4 0.4 1 0 0.5-0.5 1-1.1 1-0.5 0-0.7-0.5-0.4-1 0.3-0.6 0.8-1 1.1-1z"/>
		<path id="Layer" class="s0" d="m791.5 33.3c1.7 1.6 1.4 1.7-1.4 1-1.5-0.4-1.9-0.8-1-1.3 0.6-0.5 1.8-0.3 2.4 0.3z"/>
		<path id="Layer" class="s0" d="m975.5 33c0.3 0.5 0.1 1-0.6 1-0.8 0-0.7 0.5 0.2 1.7 1.3 1.5 1.2 1.5-0.8 0.4-1.4-0.7-2-1.7-1.7-2.6 0.7-1.7 2-1.9 2.9-0.5z"/>
		<path id="Layer" class="s0" d="m789.4 35c0.3 0 0.8 0.4 1.1 1 0.3 0.5 0.1 1-0.4 1-0.6 0-1.1-0.5-1.1-1 0-0.6 0.2-1 0.4-1z"/>
		<path id="Layer" class="s0" d="m588 39.2c1.4 0 1.9 0.2 1.3 0.5-0.7 0.2-1.9 0.2-2.5 0-0.7-0.3-0.2-0.5 1.2-0.5z"/>
		<path id="Layer" class="s0" d="m772 39.2c1.4 0 1.9 0.2 1.3 0.5-0.7 0.2-1.9 0.2-2.5 0-0.7-0.3-0.2-0.5 1.2-0.5z"/>
		<path id="Layer" class="s0" d="m405 40.2c1.4 0 1.9 0.2 1.3 0.5-0.7 0.2-1.9 0.2-2.5 0-0.7-0.3-0.2-0.5 1.2-0.5z"/>
		<path id="Layer" class="s0" d="m1140 40.2c1.4 0 1.9 0.2 1.3 0.5-0.7 0.2-1.9 0.2-2.5 0-0.7-0.3-0.2-0.5 1.2-0.5z"/>
		<path id="Layer" class="s0" d="m958.4 41.1c1.1-0.1 1.7 0.2 1.3 0.5-0.3 0.3-1.2 0.4-1.9 0.1-0.8-0.3-0.5-0.6 0.6-0.6z"/>
		<path id="Layer" class="s0" d="m290.7 44.1c0.1-0.1 0.4 0.3 0.7 0.7 0.2 0.4-1.1 0.9-3.1 1-2 0.2-4.4 0.7-5.4 1.3-1.3 0.6-1.9 0.6-1.9 0 0-0.6 1.7-1.3 3.8-1.6 2-0.4 4.2-0.8 4.7-1 0.6-0.2 1.1-0.4 1.2-0.4z"/>
		<path id="Layer" class="s0" d="m656.7 44.7c0.2 0.7 0.2 1.9 0 2.5-0.3 0.7-0.5 0.2-0.5-1.2 0-1.4 0.2-1.9 0.5-1.3z"/>
		<path id="Layer" class="s0" d="m842.7 44.7c0.2 0.7 0.2 1.9 0 2.5-0.3 0.7-0.5 0.2-0.5-1.2 0-1.4 0.2-1.9 0.5-1.3z"/>
		<path id="Layer" class="s0" d="m277 46c0.6 0 1 0.4 1 1 0 0.5-0.4 1-1 1-0.5 0-1-0.5-1-1 0-0.6 0.5-1 1-1z"/>
		<path id="Layer" class="s0" d="m646 46.2c1.4 0 1.9 0.2 1.3 0.5-0.7 0.2-1.9 0.2-2.5 0-0.7-0.3-0.2-0.5 1.2-0.5z"/>
		<path id="Layer" class="s0" d="m800 47c0.6 0 1 0.7 1 1.5 0 0.8-0.2 1.5-0.4 1.5-0.2 0-0.6-0.7-1-1.5-0.3-0.8-0.1-1.5 0.4-1.5z"/>
		<path id="Layer" class="s0" d="m616.6 49.3c0.3 0.3 0.4 1.2 0.1 1.9-0.3 0.8-0.6 0.5-0.6-0.6-0.1-1.1 0.2-1.7 0.5-1.3z"/>
		<path id="Layer" class="s0" d="m982.4 50c2.6 0 1.8 0.6-1.9 1.4-2.2 0.5-2.6 0.4-1.5-0.4 0.8-0.5 2.4-1 3.4-1z"/>
		<path id="Layer" class="s0" d="m419.7 53c0.1 1.1-0.2 2-0.8 2-1 0-1.2-2.3-0.2-3.3 0.9-0.9 0.9-1 1 1.3z"/>
		<path id="Layer" class="s0" d="m423.1 51c1.4 0 1.1 0.7-0.7 1.4-0.8 0.3-1.2 0.2-0.9-0.4 0.3-0.6 1-1 1.6-1z"/>
		<path id="Layer" class="s0" d="m601.9 51c0.4 0 0.6 1.1 0.3 2.5-0.2 1.4-0.6 2.5-0.8 2.5-0.2 0-0.4-1.1-0.4-2.5 0-1.4 0.4-2.5 0.9-2.5z"/>
		<path id="Layer" class="s0" d="m1183.7 52.5c0 0.8-0.4 1.2-0.9 0.9-0.5-0.3-0.6-1-0.3-1.5 0.9-1.3 1.2-1.1 1.2 0.6z"/>
		<path id="Layer" class="s0" d="m604.3 53.5c-0.3 0.9-0.8 1.4-1 1.1-0.3-0.3-0.2-0.9 0.2-1.5 0.9-1.6 1.5-1.3 0.8 0.4z"/>
		<path id="Layer" class="s0" d="m606.7 52.4c0.3 0.2 0 1.3-0.6 2.3-1.2 2-1.4 1.4-0.5-1.2 0.4-0.9 0.9-1.4 1.1-1.1z"/>
		<path id="Layer" class="s0" d="m975.6 54.1c0 1.4-0.5 1.5-2.4 0.8-2.2-0.9-2.4-0.7-1.8 1.5 0.3 1.4 0.2 2.8-0.4 3.1-1 0.6-1.4-3.3-0.5-5.7 0.8-1.9 5.1-1.7 5.1 0.3z"/>
		<path id="Layer" class="s0" d="m421.6 55.3c0.8 0.8 0.8 13.6 0 14.4-0.3 0.4-0.6-2.9-0.6-7.2 0-4.3 0.3-7.5 0.6-7.2z"/>
		<path id="Layer" class="s0" d="m999.6 60.3c0.3 0.3 0.4 1.2 0.1 1.9-0.3 0.8-0.6 0.5-0.6-0.6-0.1-1.1 0.2-1.7 0.5-1.3z"/>
		<path id="Layer" class="s0" d="m1154 60c0.6 0 1 0.9 1 2 0 1.1-0.4 2-1 2-0.5 0-1-0.9-1-2 0-1.1 0.5-2 1-2z"/>
		<path id="Layer" class="s0" d="m250.4 64.9c-0.4 1.7-0.9 3-1.1 2.7-0.3-0.2-0.2-1.9 0.2-3.6 0.9-4.1 1.7-3.3 0.9 0.9z"/>
		<path id="Layer" class="s0" d="m1169.4 66.6c0.3 0.8 0.2 1.2-0.4 0.9-0.6-0.3-1-1-1-1.6 0-1.4 0.7-1.1 1.4 0.7z"/>
		<path id="Layer" class="s0" d="m237.7 66.7c0.2 0.7 0.2 1.9 0 2.5-0.3 0.7-0.5 0.2-0.5-1.2 0-1.4 0.2-1.9 0.5-1.3z"/>
		<path id="Layer" class="s0" d="m631.7 66.7c0.2 0.7 0.2 1.9 0 2.5-0.3 0.7-0.5 0.2-0.5-1.2 0-1.4 0.2-1.9 0.5-1.3z"/>
		<path id="Layer" class="s0" d="m173.4 69.3c0.6 0.2 1.4 3.2 1.7 6.8 0.8 9.1 1.6 10.9 6.2 15.1l4.2 3.7-2 2c-1.7 1.8-2.5 1.9-6 1-2.2-0.6-4.5-1.1-5.2-1.1-1.1-0.1-1-0.9 0.3-8.6 0.6-3.9-0.3-9.2-1.7-9.2-0.5 0-2.1 2.5-3.4 5.7-3.2 7.1-4.1 6.4-1.5-1.2 1.1-3.2 2-6.7 2-7.8 0-1.2 1-3.1 2.2-4.4 1.2-1.3 2.7-2.2 3.2-2z"/>
		<path id="Layer" class="s0" d="m270.7 69.7c0.2 0.7 0.2 2.1 0 3-0.3 1-0.5 0.4-0.5-1.2 0-1.7 0.2-2.4 0.5-1.8z"/>
		<path id="Layer" class="s0" d="m539.7 77.7c1 8.5 1.1 8.8 5.4 12.4 3.7 3.2 4.2 4.1 3.3 5.6-1.5 2.4-5.6 2.8-9.5 0.8-2.6-1.4-3.3-1.4-4-0.4-0.4 0.8-1.1 1.1-1.4 0.7-0.3-0.3 0.1-1.2 0.9-2.1 2.7-2.6 3.4-16.7 0.8-16.7-0.4 0-1.8 2.5-3.1 5.5-1.3 3-2.7 5.5-3.2 5.5-0.5 0-0.3-1.5 0.5-3.4 0.8-1.9 1.9-5.9 2.6-9 0.6-3.2 1.9-6 2.8-6.6 3.2-1.8 3.8-0.9 4.9 7.7z"/>
		<path id="Layer" class="s0" d="m721.1 69c1.5 0 1.9 0.7 1.9 3.4 0 1.8 0.4 5.8 1 8.7 0.8 4.5 1.7 6 5.2 9.1 3.6 3.1 4.1 4 3.2 5.5-0.9 1.3-2.2 1.7-5 1.5-2.2-0.1-5.4-0.3-7.3-0.4-2.7-0.1-3.1-0.3-1.8-1.3 2.7-2 3.5-17.5 0.9-17.5-0.5 0-1.9 2.5-3.1 5.5-2.7 6.4-4.7 7.5-2.5 1.2 0.8-2.3 1.9-6.2 2.5-8.7 0.6-2.4 1.5-5 2.1-5.7 0.6-0.7 1.9-1.3 2.9-1.3z"/>
		<path id="Layer" class="s0" d="m249.4 71.6c0.3 0.8 0.2 1.2-0.4 0.9-0.6-0.3-1-1-1-1.6 0-1.4 0.7-1.1 1.4 0.7z"/>
		<path id="Layer" class="s0" d="m252 71c0.5 0.8 1 1.9 1 2.5 0 0.5-0.5 0.3-1-0.5-0.5-0.8-1-2-1-2.5 0-0.6 0.5-0.3 1 0.5z"/>
		<path id="Layer" class="s0" d="m356.5 77.2c0.8 8.2 2.7 13.8 4.8 13.8 0.8 0 2.2 0.9 3.3 2.1 3 3.4 0.8 5.4-6.1 5.5-3.5 0.1-5.2-0.2-4.4-0.7 0.8-0.5 1.2-0.9 0.9-1-3.4-0.6-4.3-0.8-4.8-1.3-0.3-0.3 0.2-0.6 1-0.6 2.4 0 3.9-11.8 1.9-14.9-0.7-1.1-1.7 0.1-4 4.5-1.6 3.2-3 5.6-3.1 5.2-0.1-2.1 5.2-18.3 6.3-19 2.7-1.7 3.5-0.6 4.2 6.4z"/>
		<path id="Layer" class="s0" d="m1091.3 76.7c0.8 9.4 2.2 12.8 6.3 15.2 5.4 3.2 4 7.1-2.6 7.1-5.6 0-7.4-2.6-6.5-9.5 0.7-5.6 0.1-9.5-1.5-9.5-0.5 0-1.9 2.2-3.1 5-3 6.6-4.3 6.4-2-0.3 1-2.8 2.1-6.9 2.5-8.9 0.4-2.1 1.4-4.2 2.4-4.7 3.3-2 3.9-1.2 4.5 5.6z"/>
		<path id="Layer" class="s0" d="m908.3 77.8c0.9 9.5 2.3 12.8 6.3 15.1 5.9 3.5 3.7 7.4-4 6.9-5.2-0.3-6.1-2-5-9.4 0.7-4.6-0.1-9.4-1.4-9.4-0.5 0-1.9 2.2-3.2 5-3 6.4-4.6 6.5-2.1 0.2 1-2.6 2.1-6.4 2.5-8.4 0.4-2.1 1.4-4.4 2.2-5.3 3-3 4.1-1.8 4.7 5.3z"/>
		<path id="Layer" class="s0" d="m237.7 73.7c0.2 1.3 0.2 3.3 0 4.5-0.2 1.3-0.4 0.3-0.4-2.2 0-2.5 0.2-3.5 0.4-2.3z"/>
		<path id="Layer" class="s0" d="m498.6 73.6c1.5 1.1 4.2 1.7 6.9 1.6 3.9-0.2 4.3 0 3.8 1.8q-0.7 2.7 3 2.1c0.5-0.1 0.6 0.3 0.2 0.9-0.8 1.2 3.3 7.2 4.5 6.5 0.9-0.5 2.3 2.5 1.5 3.3-0.7 0.7-8.1-2.6-14.1-6.4-4.5-2.8-8.4-7.7-8.4-10.6 0-0.5 1.2-0.1 2.6 0.8z"/>
		<path id="Layer" class="s0" d="m603.4 72.1c0.8 0.8 1 8.8 0.3 9.5-0.4 0.4-0.7-1.7-0.7-4.6 0-2.9 0.2-5.1 0.4-4.9z"/>
		<path id="Layer" class="s0" d="m683.2 73.7c1.2 1.1 3.3 1.6 6.2 1.5 4-0.2 4.4 0 3.9 1.8q-0.8 2.7 3 2.1c0.5-0.1 0.6 0.3 0.2 0.8-0.8 1.3 2.4 6.1 4 6.1 1.4 0 2.9 2.9 2 3.8-0.6 0.7-7.8-2.5-13.8-6.1-3-1.8-5.5-4.3-6.7-6.8-1.1-2.1-2-4.1-2-4.4 0-1 1.3-0.5 3.2 1.2z"/>
		<path id="Layer" class="s0" d="m135.5 74.6c1.4 0.9 3.9 1.4 6.2 1.2 3.4-0.3 3.8-0.1 3.5 1.9-0.2 1.6 0.2 2.3 1.4 2.3 1 0 1.4 0.3 1.1 0.7-0.9 0.9 1.3 3.4 2.4 2.7 0.5-0.3 0.6 0.2 0.3 1.1-0.5 1.1 0 1.8 1.4 2.2 1.8 0.4 3.9 4.3 2.3 4.3-1.3 0-14.6-7.2-18-9.8-1.9-1.4-2.9-2.8-2.3-3 0.8-0.2 0.7-0.8-0.3-1.9-0.8-0.8-1.5-1.9-1.5-2.4 0-1.3 0.7-1.1 3.5 0.7z"/>
		<path id="Layer" class="s0" d="m207.4 73c0.2 0 1.9 2.6 3.9 5.7 4.8 7.8 7.4 10.1 12.5 10.7 5.8 0.7 6.3 1.1 5.1 4.5-1.1 3.1-3.2 4.1-9.2 4.1-4 0-4.2-0.2-5.1-6.1-0.7-4-4.3-8.6-5.8-7.1-0.5 0.5-0.5 3.1 0 6.5 0.5 3.1 0.7 5.9 0.4 6.2-1.4 1.3-2 0-2.6-5.6-0.3-3.4-1.1-7.9-1.7-10-1-3.2-0.9-4.2 0.5-6.4 0.9-1.4 1.8-2.5 2-2.5z"/>
		<path id="Layer" class="s0" d="m266.6 73.3c0.3 0.3 0.4 1.2 0.1 1.9-0.3 0.8-0.6 0.5-0.6-0.6-0.1-1.1 0.2-1.7 0.5-1.3z"/>
		<path id="Layer" class="s0" d="m574.8 77.1c4.3 7.4 9 11.9 12.7 11.9 6.6 0 8 1.9 4.7 6-1.4 1.7-3.1 2.3-7.5 2.6-4.9 0.3-5.5 0.1-5-1.4 0.6-1.5 0.5-1.6-1.3-0.2-1.8 1.4-1.8 1.4-0.3-0.5 2.1-2.6 0.9-7.2-2.6-10.5l-2.5-2.3v7.2c0 6 0.2 7.1 1.3 6.2 1-0.8 1.4-0.7 1.4 0.3 0 0.8-0.7 1.2-1.6 1.1-0.9-0.2-1.8-0.4-2.1-0.4-0.3-0.1-0.6-2-0.8-4.4-0.1-2.3-0.7-5.8-1.2-7.7-1.3-4.8-1.2-9.4 0.2-10.8 1.8-1.8 2.1-1.6 4.6 2.9z"/>
		<path id="Layer" class="s0" d="m601.7 74.7c0.2 1.3 0.2 3.3 0 4.5-0.2 1.3-0.4 0.3-0.4-2.2 0-2.5 0.2-3.5 0.4-2.3z"/>
		<path id="Layer" class="s0" d="m758.8 77.1c4.3 7.4 9 11.9 12.7 11.9 6.6 0 8 1.9 4.7 6-1.4 1.7-3.1 2.3-7.5 2.6-4.9 0.3-5.5 0.1-5-1.4 0.6-1.5 0.5-1.6-1.3-0.2-1.5 1.1-1.6 1.1-0.6 0 2.1-2.4 1.4-6.8-1.8-10.2l-2.9-3.3-0.1 7.3c0 4.3 0.4 7.1 0.9 6.7 0.5-0.3 1.2-0.1 1.5 0.3 0.3 0.5-0.4 0.9-1.6 0.8-1.8-0.1-2.2-0.8-2.5-4.6-0.2-2.5-0.8-6.1-1.3-8-1.3-4.8-1.2-9.4 0.2-10.8 1.8-1.8 2.1-1.6 4.6 2.9z"/>
		<path id="Layer" class="s0" d="m317.5 75.6c1.7 1.1 3.5 1.4 6 1 3.2-0.6 3.5-0.5 3.2 1.6-0.1 1.7 0.3 2.3 1.5 2.2 1-0.1 1.5 0.3 1.1 0.9-0.3 0.5 0.2 1.6 1.2 2.4 1.1 0.7 1.5 1.3 1.1 1.3-0.5 0-0.3 0.7 0.4 1.5 0.7 0.8 1.6 1.3 2 1 0.9-0.5 2.3 2.5 1.6 3.3-0.9 0.8-6.6-2-6-2.9 0.3-0.5-0.2-0.6-1-0.3-1.6 0.6-11.2-5.1-13.6-8.1-1.1-1.4-1.1-1.7-0.1-1.1 0.8 0.6 0.7 0-0.4-1.8-2-3-0.7-3.4 3-1z"/>
		<path id="Layer" class="s0" d="m388.4 74c0.3 0 1.9 2.1 3.7 4.7 5.7 8.5 8.9 11.3 12.8 11.3 4.9 0 6.4 1.1 5.6 4.3-1.1 4.3-11.8 6.5-14.6 3-1-1.1-1-1.4-0.1-0.9 2.7 1.6-0.1-7.4-3.3-10.4l-2.5-2.3v6.6c0 3.8 0.4 6.7 1 6.7 0.6 0 1 0.4 1 0.8 0 0.5-0.7 0.9-1.5 0.9-0.8 0-1.5-0.3-1.5-0.7 0-0.4-0.7-4.8-1.6-10-1.2-6.9-1.3-9.9-0.5-11.6 0.6-1.3 1.3-2.4 1.5-2.4z"/>
		<path id="Layer" class="s0" d="m1051.8 75.6c1.6 1.1 3.4 1.4 6.2 0.9 3.5-0.6 3.9-0.5 3.4 1-0.5 1.1 0.4 2.6 2.5 4.6 1.8 1.6 2.9 2.9 2.5 2.9-0.3 0-0.1 0.7 0.6 1.5 0.7 0.8 1.6 1.2 2.1 0.9 0.5-0.3 0.9 0.5 0.9 1.6 0 1.6-0.4 2-1.6 1.6-0.9-0.3-2-0.6-2.5-0.6-0.6 0-0.7-0.5-0.3-1.2 0.4-0.7 0.3-0.8-0.5-0.4-0.6 0.4-3.6-0.7-6.6-2.4-6.2-3.5-8.8-5.8-8-7 0.3-0.4-0.2-1.3-1-2-0.8-0.7-1.5-1.6-1.5-2.1 0-1.3 1.3-1.1 3.8 0.7z"/>
		<path id="Layer" fill-rule="evenodd" class="s0" d="m1123.6 74c0.2 0 1.9 2.4 3.7 5.2 5.6 8.6 8.1 10.8 12.4 10.8 5.5 0 7 1.2 5.5 4.4-1.4 3.2-5.1 4.7-10.6 4.5-5.2-0.3-6-0.7-4.5-2.5 1.7-2.1 0.3-7.7-2.7-10.5l-2.6-2.4 0.3 7.5c0.1 4.3-0.2 7.3-0.7 7-0.5-0.3-1-1.9-1.2-3.5-0.1-1.7-0.8-5.5-1.5-8.5-1.3-6.1-1.2-8.7 0.4-10.7 0.6-0.7 1.3-1.3 1.5-1.3zm8 22c-0.3 0-0.8 0.4-1.1 1-0.3 0.5-0.1 1 0.4 1 0.6 0 1.1-0.5 1.1-1 0-0.6-0.2-1-0.4-1z"/>
		<path id="Layer" class="s0" d="m254 75c0.6 0 1 0.2 1 0.4 0 0.3-0.4 0.8-1 1.1-0.5 0.3-1 0.1-1-0.4 0-0.6 0.5-1.1 1-1.1z"/>
		<path id="Layer" class="s0" d="m868.9 76.6c1.6 1.2 3.4 1.5 6.3 1 3.6-0.6 3.9-0.5 3.3 1.4-0.4 1.3-0.1 2.2 0.9 2.6 0.9 0.3 1.6 1.2 1.6 1.9 0 0.7 1.4 2.5 3.2 4 5.3 4.5 4.4 5.7-1.9 2.9-10.3-4.5-13.8-7.2-16.1-12.7-1.3-3.1-0.6-3.4 2.7-1.1z"/>
		<path id="Layer" class="s0" d="m941.7 76.5c10.5 15 10 14.5 14.5 14.5 2.4 0 4.9 0.4 5.6 0.9 2 1.3 0.4 6.1-2.5 7.2-3.2 1.2-9 1.2-9.8-0.1-0.4-0.6-1.2-0.7-1.8-0.4-0.9 0.5-0.9 0.4-0.1-0.5 2.1-2.3-1.8-12.1-4.8-12.1-0.4 0-0.8 3.2-0.8 7.1 0 7.2-1.4 9-1.8 2.2-0.2-2.1-0.8-6.3-1.6-9.4-1.1-4.9-1.1-6.1 0.2-8.5 1.4-2.7 1.5-2.8 2.9-0.9z"/>
		<path id="Layer" class="s0" d="m494.1 79.7c1.3 1.6 1.2 1.7-0.3 0.4-1-0.7-1.8-1.5-1.8-1.7 0-0.8 0.8-0.3 2.1 1.3z"/>
		<path id="Layer" class="s0" d="m678.1 79.7c1.3 1.6 1.2 1.7-0.3 0.4-1-0.7-1.8-1.5-1.8-1.7 0-0.8 0.8-0.3 2.1 1.3z"/>
		<path id="Layer" class="s0" d="m248.4 79c0.3 0 0.8 0.4 1.1 1 0.3 0.5 0.1 1-0.4 1-0.6 0-1.1-0.5-1.1-1 0-0.6 0.2-1 0.4-1z"/>
		<path id="Layer" class="s0" d="m420.9 80.4c1.1 0 1.7 0.4 1.4 0.9-0.3 0.5-1.1 0.6-1.9 0.3-0.8-0.3-1.4 0-1.4 0.6 0 0.6-0.3 0.9-0.6 0.5-0.3-0.3-0.4-1-0.1-1.4 0.3-0.5 1.5-0.9 2.6-0.9z"/>
		<path id="Layer" class="s0" d="m788 80c0.6 0 1 0.2 1 0.4 0 0.3-0.4 0.8-1 1.1-0.5 0.3-1 0.1-1-0.4 0-0.6 0.5-1.1 1-1.1z"/>
		<path id="Layer" class="s0" d="m1044.7 80c0.6 0 1.7 0.8 2.4 1.7 1.3 1.7 1.3 1.7-0.6 0.3-1.1-0.8-2.2-1.6-2.4-1.7q-0.3-0.3 0.6-0.3z"/>
		<path id="Layer" class="s0" d="m133.1 82.7c1.3 1.6 1.2 1.7-0.3 0.4-1-0.7-1.8-1.5-1.8-1.7 0-0.8 0.8-0.3 2.1 1.3z"/>
		<path id="Layer" class="s0" d="m473.7 81.7c0.7 0.3 1.3 0.6 1.3 0.8 0 0.2-0.6 0.5-1.3 0.8-0.8 0.3-1.4-0.1-1.4-0.8 0-0.7 0.6-1.1 1.4-0.8z"/>
		<path id="Layer" class="s0" d="m861.7 81c0.6 0 1.7 0.8 2.4 1.7 1.3 1.7 1.3 1.7-0.6 0.3-1.1-0.8-2.2-1.6-2.4-1.7q-0.3-0.3 0.6-0.3z"/>
		<path id="Layer" class="s0" d="m1016.7 81.1c3.9 0 7.4 0.2 7.6 0.6 0.5 0.7-6.3 0.7-12.3-0.1-1.4-0.2 0.7-0.4 4.7-0.5z"/>
		<path id="Layer" class="s0" d="m316 84c1.7 1.2 3 2.4 3 2.6 0 0.3-1.3-0.4-3-1.6-1.6-1.2-3-2.4-3-2.6 0-0.3 1.4 0.4 3 1.6z"/>
		<path id="Layer" class="s0" d="m129.5 86c-0.7 1.1 8.1 5.4 10.9 5.5 1.1 0 2.1 0.5 2.3 1.2 1.2 3.5-19.6 2.7-23.4-0.9-2.9-2.7-2.9-3.6 0-3.1 1.3 0.3 3.6-0.6 5.7-2 3.3-2.3 5.7-2.6 4.5-0.7z"/>
		<path id="Layer" class="s0" d="m494 85.5c0 0.8 0.9 1.5 2 1.5 1.1 0 2 0.4 2 0.9 0 1.2 5.7 3.4 6.9 2.7 0.5-0.4 1.5 0.3 2.1 1.4 1 1.9 0.8 2-7.3 2-10.5 0-18.3-1-16.5-2.1 1-0.6 0.9-1.2-0.7-2.3-1.9-1.5-1.8-1.5 1.5-1.6 1.9 0 4.6-0.9 6-2 3-2.4 4-2.5 4-0.5z"/>
		<path id="Layer" class="s0" d="m678 85.5c0 0.8 0.6 1.5 1.3 1.5 0.7 0 2.2 0.8 3.3 1.8 1.1 1 3.2 1.8 4.8 1.7 1.8 0 3.1 0.6 3.8 1.8 0.9 1.8 0.5 1.9-10.4 1.3-15.2-0.7-15.5-0.7-14-1.3 1-0.4 0.9-0.9-0.4-2.4-1.6-1.8-1.6-1.9 1.7-1.9 1.9 0 4.5-0.9 5.9-2 3-2.4 4-2.5 4-0.5z"/>
		<path id="Layer" class="s0" d="m868.1 85.7c1.3 1.6 1.2 1.7-0.3 0.4-1-0.7-1.8-1.5-1.8-1.7 0-0.8 0.8-0.3 2.1 1.3z"/>
		<path id="Layer" class="s0" d="m311.3 87c0.3 1.1 0.9 2 1.4 1.8 0.4-0.1 2.2 0.6 4 1.5 1.8 0.9 4.1 1.7 5.1 1.7 1.1 0 2.2 0.7 2.6 1.5 0.4 1.3-0.9 1.5-9.2 1.4-8.4 0-21.1-1.5-15.8-1.8 1.8-0.1 1.8-0.2 0.2-1.9-1.6-1.8-1.5-1.9 1.6-2 1.7 0 4.3-1 5.7-2.1 3.3-2.5 3.8-2.5 4.4-0.1z"/>
		<path id="Layer" class="s0" d="m1045.6 86.5c-0.3 0.8-0.1 1.6 0.4 1.6 0.6 0.1 1.4 0.2 2 0.3 0.5 0 1.9 0.9 3 1.8 1.1 1 3.3 1.8 4.9 1.8 1.6 0 3.1 0.6 3.5 1.5 0.5 1.3-1.1 1.5-10.4 1.5-10.6 0-11-0.1-13.5-2.8l-2.5-2.7 3.2-0.3c1.8-0.2 4.4-1.2 5.8-2.2 3-2.3 4.4-2.5 3.6-0.5z"/>
		<path id="Layer" class="s0" d="m863 88c0 1.1 0.7 2 1.5 2 0.8 0 2.8 0.8 4.6 1.9 1.7 1 3.9 1.7 4.8 1.4 1-0.3 2.1 0.2 2.4 1 1.4 3.7-19.8 3-23.9-0.8-1.3-1.2-2.4-2.4-2.4-2.6 0-0.2 1.7-0.5 3.7-0.7 2.1-0.1 4.7-1.1 5.8-2.2 2.5-2.5 3.5-2.5 3.5 0z"/>
		<path id="Layer" class="s0" d="m143.3 88.6c1 0.3 1.5 0.9 1.2 1.2-0.3 0.3-1.1 0-1.8-0.7-0.9-1-0.8-1.1 0.6-0.5z"/>
		<path id="Layer" class="s0" d="m509.5 89c0.3 0.6-0.1 0.7-0.9 0.4-0.9-0.3-1.6-0.8-1.6-1 0-0.8 1.9-0.4 2.5 0.6z"/>
		<path id="Layer" class="s0" d="m1058.3 88.6c1 0.3 1.5 0.9 1.2 1.2-0.3 0.3-1.1 0-1.8-0.7-0.9-1-0.8-1.1 0.6-0.5z"/>
		<path id="Layer" class="s0" d="m514.3 94.6c1 0.3 1.5 0.9 1.2 1.2-0.3 0.3-1.1 0-1.8-0.7-0.9-1-0.8-1.1 0.6-0.5z"/>
		<path id="Layer" class="s0" d="m716 94c0.6 0 1 0.2 1 0.4 0 0.3-0.4 0.8-1 1.1-0.5 0.3-1 0.1-1-0.4 0-0.6 0.5-1.1 1-1.1z"/>
		<path id="Layer" class="s0" d="m435.5 95c0.1 0 0.5 0.9 0.8 2 0.3 1.2 0 2-0.8 2-0.8 0-1.1-0.8-0.8-2 0.3-1.1 0.7-2 0.8-2z"/>
		<path id="Layer" class="s0" d="m480.4 95.1c1.1-0.1 1.7 0.2 1.3 0.5-0.3 0.3-1.2 0.4-1.9 0.1-0.8-0.3-0.5-0.6 0.6-0.6z"/>
		<path id="Layer" class="s0" d="m619 96.6c0.9 2.2 0.6 2.9-0.9 2-0.6-0.4-0.7-1.4-0.4-2.3 0.6-1.5 0.7-1.4 1.3 0.3z"/>
		<path id="Layer" class="s0" d="m664.4 95.1c1.1-0.1 1.7 0.2 1.3 0.5-0.3 0.3-1.2 0.4-1.9 0.1-0.8-0.3-0.5-0.6 0.6-0.6z"/>
		<path id="Layer" class="s0" d="m803 97.1c0 1.1-0.4 1.8-1 1.4-0.5-0.3-0.7-1.2-0.3-2 0.7-2.1 1.3-1.9 1.3 0.6z"/>
		<path id="Layer" class="s0" d="m119.4 96.1c1.1-0.1 1.7 0.2 1.3 0.5-0.3 0.3-1.2 0.4-1.9 0.1-0.8-0.3-0.5-0.6 0.6-0.6z"/>
		<path id="Layer" class="s0" d="m258 96.5c0.6 0.3 1 1.1 1 1.6 0 0.6-0.4 0.7-1 0.4-0.5-0.3-1-1.1-1-1.6 0-0.6 0.5-0.7 1-0.4z"/>
		<path id="Layer" class="s0" d="m297.4 96.1c1.1-0.1 1.7 0.2 1.3 0.5-0.3 0.3-1.2 0.4-1.9 0.1-0.8-0.3-0.5-0.6 0.6-0.6z"/>
		<path id="Layer" class="s0" d="m489 96.2c1.9 0 2.7 0.2 1.8 0.5-1 0.2-2.6 0.2-3.5 0-1-0.3-0.2-0.5 1.7-0.5z"/>
		<path id="Layer" class="s0" d="m673 96.2c1.9 0 2.7 0.2 1.8 0.5-1 0.2-2.6 0.2-3.5 0-1-0.3-0.2-0.5 1.7-0.5z"/>
		<path id="Layer" class="s0" d="m1032.4 96.1c1.1-0.1 1.7 0.2 1.3 0.5-0.3 0.3-1.2 0.4-1.9 0.1-0.8-0.3-0.5-0.6 0.6-0.6z"/>
		<path id="Layer" class="s0" d="m132 97.3c3 0 4.3 0.2 2.8 0.4-1.6 0.2-4 0.2-5.5 0-1.6-0.2-0.3-0.4 2.7-0.4z"/>
		<path id="Layer" class="s0" d="m305.5 97.2c1.7 0 2.4 0.2 1.8 0.5-0.7 0.2-2.1 0.2-3 0-1-0.3-0.4-0.5 1.2-0.5z"/>
		<path id="Layer" class="s0" d="m721.4 97.1c1.1-0.1 1.7 0.2 1.3 0.5-0.3 0.3-1.2 0.4-1.9 0.1-0.8-0.3-0.5-0.6 0.6-0.6z"/>
		<path id="Layer" class="s0" d="m1040 97.2c1.9 0 2.7 0.2 1.8 0.5-1 0.2-2.6 0.2-3.5 0-1-0.3-0.2-0.5 1.7-0.5z"/>
		<path id="Layer" class="s0" d="m1086.7 97.3c1.2 0.2 2.6 0.6 2.9 1 1.1 1.1-1.9 0.8-3.6-0.3-1.2-0.8-1-0.9 0.7-0.7z"/>
		<path id="Layer" class="s0" d="m1171.9 98.4c1 1.2 0.8 1.3-0.8 0.9-1.2-0.3-1.8-0.9-1.5-1.4 0.7-1.2 1-1.1 2.3 0.5z"/>
		<path id="Layer" class="s0" d="m302.4 99c0.3 0 0.8 0.4 1.1 1 0.3 0.5 0.1 1-0.4 1-0.6 0-1.1-0.5-1.1-1 0-0.6 0.2-1 0.4-1z"/>
		<path id="Layer" class="s0" d="m865.5 99.3c2.8 0 4 0.2 2.8 0.4-1.3 0.2-3.5 0.2-5 0-1.6-0.2-0.5-0.4 2.2-0.4z"/>
		<path id="Layer" class="s0" d="m1039 99c0.6 0 1 0.2 1 0.4 0 0.3-0.4 0.8-1 1.1-0.5 0.3-1 0.1-1-0.4 0-0.6 0.5-1.1 1-1.1z"/>
		<path id="Layer" class="s0" d="m320.4 100.1c1.1-0.1 1.7 0.2 1.3 0.5-0.3 0.3-1.2 0.4-1.9 0.1-0.8-0.3-0.5-0.6 0.6-0.6z"/>
		<path id="Layer" class="s0" d="m856 101.2c1.4 0 1.9 0.2 1.3 0.5-0.7 0.2-1.9 0.2-2.5 0-0.7-0.3-0.2-0.5 1.2-0.5z"/>
	</g>
</svg>